<svg xmlns="http://www.w3.org/2000/svg" width="189.42" height="25.44" viewBox="0 0 189.42 25.44">
  <g id="logo_mubiplex" transform="translate(-130.241 -26.88)">
    <path id="Unión_4" data-name="Unión 4" d="M17626.926-903.057c0-5.206,4.059-7.321,9.795-7.321,5.375,0,9.672,1.849,9.672,8.283h-15.262c.451,2.253,2.615,3,5.352,3,2.828,0,4.559-.528,5.592-1.969h4.078c-.936,3.6-4.437,5.308-9.67,5.308C17631.1-895.758,17626.926-897.873,17626.926-903.057ZM17642-904.71c-.691-2-2.709-2.545-5.3-2.545-2.807,0-4.775.55-5.424,2.545Zm-71.545,6.5V-896h-4.1v-19.2h4.1v7.272c1.539-1.605,4.014-2.448,7.061-2.448,4.535,0,8.42,1.92,8.42,7.321s-3.885,7.3-8.42,7.3C17574.467-895.758,17571.992-896.6,17570.453-898.21Zm5.689-.98c3.672,0,5.668-1.082,5.668-3.867,0-2.807-2-3.889-5.668-3.889s-5.689,1.082-5.689,3.889C17570.453-900.272,17572.471-899.19,17576.143-899.19Zm-32.807-3.122.047-7.826h4.129v6.265c0,3,1.006,4.558,4.395,4.558a10.183,10.183,0,0,0,7.006-2.9v-7.924h4.1V-896h-4.1v-2.47a13.175,13.175,0,0,1-8.234,2.714C17546.914-895.758,17543.383-897.106,17543.336-902.312ZM17662.52-896l-5.184-4.678-5.184,4.678h-5.521l7.947-7.055-7.947-7.081h5.521l5.184,4.682,5.184-4.682h5.52l-7.967,7.081,7.967,7.055Zm-42.789,0v-19.2h4.1V-896Zm-23,0v-16.8h13.2c3.816,0,6.434,2.421,6.434,6.168s-2.617,6.141-6.434,6.141h-8.877V-896Zm12-8.11c1.295,0,3.313,0,3.313-2.519,0-2.545-2.018-2.545-3.312-2.545h-7.68v5.064Zm-19.705,8.11v-14.136h4.105V-896Zm-53.6,0v-11.52l-6.982,11.52h-3.117l-6.984-11.52V-896h-4.324v-16.8h5.836l7.033,11.852,7.027-11.852h5.836V-896Zm53.6-15.621V-915.2h4.105v3.578Z" transform="translate(-17349.697 944)" fill="#fff" stroke="rgba(0,0,0,0)" stroke-miterlimit="10" stroke-width="1"/>
    <path id="Trazado_92" data-name="Trazado 92" d="M14.72,24.9H24.9V27.44H14.72A12.72,12.72,0,1,1,24.9,22.352H21.451A10.176,10.176,0,1,0,14.72,24.9Zm0-12.72a2.544,2.544,0,1,1,2.544-2.544A2.544,2.544,0,0,1,14.72,12.176ZM9.632,17.264a2.544,2.544,0,1,1,2.544-2.544A2.544,2.544,0,0,1,9.632,17.264Zm10.176,0a2.544,2.544,0,1,1,2.544-2.544A2.544,2.544,0,0,1,19.808,17.264ZM14.72,22.352a2.544,2.544,0,1,1,2.544-2.544A2.544,2.544,0,0,1,14.72,22.352Z" transform="translate(128.241 24.88)" fill="#4f44fb"/>
  </g>
</svg>
