<svg xmlns="http://www.w3.org/2000/svg" xmlns:xlink="http://www.w3.org/1999/xlink" width="128" height="22.187" viewBox="0 0 128 22.187">
  <defs>
    <linearGradient id="linear-gradient" x1="0.5" x2="0.5" y2="1" gradientUnits="objectBoundingBox">
      <stop offset="0" stop-color="#4f44fb"/>
      <stop offset="1" stop-color="#7d5ade"/>
    </linearGradient>
  </defs>
  <path id="logo_hbo" d="M-2549.6-2030.907c0-7.253,4.458-11.093,10.005-11.072a9.873,9.873,0,0,1,6.059,1.92,1.99,1.99,0,0,1,1.941-1.579h1.877a.328.328,0,0,1,.32.32v21.077a.337.337,0,0,1-.341.341h-1.877a1.979,1.979,0,0,1-1.984-1.813,9.867,9.867,0,0,1-6.016,1.9C-2545.12-2019.813-2549.6-2023.653-2549.6-2030.907Zm4.011,0c0,4.544,2.688,6.955,5.973,6.955,3.307,0,5.974-2.411,5.974-6.955s-2.667-6.955-5.974-6.955S-2545.589-2035.451-2545.589-2030.907Zm-57.536,4.843a6.524,6.524,0,0,1-6.507,6.123h-9.387v-21.717h10.069c3.115,0,5.8,3.221,5.8,5.909a10.887,10.887,0,0,1,9.963-6.251,10.922,10.922,0,0,1,10.966,11.029,11.1,11.1,0,0,1-10.966,11.136A10.952,10.952,0,0,1-2603.125-2026.064Zm-10.262,1.088h2.987a1.733,1.733,0,0,0,1.579-1.856,1.733,1.733,0,0,0-1.579-1.813h-2.987Zm14.7-5.995a5.531,5.531,0,0,0,5.525,5.547,5.523,5.523,0,0,0,5.5-5.461,5.5,5.5,0,0,0-5.483-5.589h-.04A5.5,5.5,0,0,0-2598.688-2030.971Zm-7.744,0a4.475,4.475,0,0,1,2.283,1.664,8.788,8.788,0,0,1,0-2.987A4.755,4.755,0,0,1-2606.432-2030.971Zm-6.955-2.2h2.987a1.733,1.733,0,0,0,1.579-1.813,1.733,1.733,0,0,0-1.579-1.813h-2.987Zm60.48,13.269a2,2,0,0,1-2.005-2.005v-11.99a3.894,3.894,0,0,0-4.181-3.968,3.9,3.9,0,0,0-4.181,3.968v13.653a.337.337,0,0,1-.341.341h-1.877a2,2,0,0,1-2.005-2.005v-11.99a3.894,3.894,0,0,0-4.181-3.968,3.9,3.9,0,0,0-4.182,3.968v13.653a.337.337,0,0,1-.341.341h-1.877a2,2,0,0,1-2.006-2.005v-12.032c.128-5.269,3.84-8.064,8.406-8.064a8.5,8.5,0,0,1,6.315,2.475,8.42,8.42,0,0,1,6.293-2.475c4.565,0,8.277,2.795,8.384,8.043,0,.021.021.043,0,.064v13.653a.337.337,0,0,1-.342.341Zm41.451-.021a2.674,2.674,0,0,1-2.2-1.173l-3.541-5.248a1.156,1.156,0,0,0-1.92,0l-3.542,5.248a2.673,2.673,0,0,1-2.2,1.173h-3.2a.245.245,0,0,1-.213-.384l6.315-9.344a2.035,2.035,0,0,0,0-2.24l-6.315-9.365a.251.251,0,0,1,.213-.384h3.2a2.673,2.673,0,0,1,2.2,1.173l3.542,5.248a1.156,1.156,0,0,0,1.92,0l3.541-5.248a2.674,2.674,0,0,1,2.2-1.173h3.2a.234.234,0,0,1,.213.363l-6.315,9.365a2.034,2.034,0,0,0,0,2.24l6.315,9.365a.252.252,0,0,1-.213.384Zm-114.689,0v-8.427h-3.819v8.405H-2636v-21.7h6.037v8.107h3.819v-8.107h5.909v21.718Zm28.608-11.051a4.325,4.325,0,0,1,4.352-4.331,4.348,4.348,0,0,1,4.331,4.331,4.366,4.366,0,0,1-4.331,4.352A4.343,4.343,0,0,1-2597.536-2030.971Z" transform="translate(2636 2042)" fill="url(#linear-gradient)"/>
</svg>
