<svg xmlns="http://www.w3.org/2000/svg" xmlns:xlink="http://www.w3.org/1999/xlink" width="138.909" height="32" viewBox="0 0 138.909 32">
  <defs>
    <linearGradient id="linear-gradient" x1="0.5" x2="0.5" y2="1" gradientUnits="objectBoundingBox">
      <stop offset="0" stop-color="#4f44fb"/>
      <stop offset="1" stop-color="#7d5ade"/>
    </linearGradient>
  </defs>
  <path id="logo_paramount" d="M-2326.734-1469.7c-.436,0-.849-.026-1.248-.051-3.9-.377-6.09-2.373-6.017-5.478.02-.872.283-1.911,1.428-1.911h.141a1.106,1.106,0,0,1,.778.348,1.106,1.106,0,0,1,.3.8,4.261,4.261,0,0,1-.069.587,5.125,5.125,0,0,0-.084.763,3.9,3.9,0,0,0,3.544,4.1,8.611,8.611,0,0,0,1.146.077c2.981,0,5.359-1.266,7.481-3.984a42.435,42.435,0,0,0,4.733-8.895c2.012-4.571,4.092-9.3,7.54-11.988a10.757,10.757,0,0,1,1.1-.765l.255.306c-.253.316-.448.607-.485.662-1.74,2.509-2.842,5.928-3.773,9.248l-.177.586a8.657,8.657,0,0,0,8-8.356,6.258,6.258,0,0,0-2.7-5.516,11.572,11.572,0,0,0-6.481-1.618h-.233a17.756,17.756,0,0,0-6.293,1.149c-4.226,1.544-8.742,5.267-8.742,11.084,0,2.6,1.138,5.375,4.333,5.375a4,4,0,0,0,2.989-1.19,4.591,4.591,0,0,0,1.141-3.447.829.829,0,0,1,.223-.6,1.114,1.114,0,0,1,.848-.319,1.035,1.035,0,0,1,.784.281.935.935,0,0,1,.235.635c0,3.093-2.479,5.172-6.169,5.172-2.646,0-4.646-.89-5.785-2.573a6.552,6.552,0,0,1-1.045-3.719,9.692,9.692,0,0,1,1.045-4.383c2.457-5.013,9.177-8.382,16.72-8.382a18.082,18.082,0,0,1,8.986,2.013,6.908,6.908,0,0,1,3.785,6.14,7.282,7.282,0,0,1-2.771,5.659,15.336,15.336,0,0,1-5.793,2.927,19.225,19.225,0,0,1-3.39.714,23.113,23.113,0,0,1-5.736,10.264A14.62,14.62,0,0,1-2326.734-1469.7Zm104.511-3.821h0a2.413,2.413,0,0,1-2.573-2.676,6.39,6.39,0,0,1,.355-1.936c-1.09,1.467-2.861,3.033-4.56,3.033a1.581,1.581,0,0,1-1.734-1.707,5.941,5.941,0,0,1,.536-2.115c.317-.757.755-1.685,1.452-3.134.128-.271.259-.541.387-.806l.016-.034a10,10,0,0,0,1.051-2.6v-.075a.426.426,0,0,0-.421-.383h-.014c-1.229,0-2.61,1.706-4.1,5.071l-2.473,5.6h-3.084l.943-2.14c-1.045,1.258-2.224,2.421-3.747,2.421-1.047,0-1.556-.584-1.556-1.784a4.722,4.722,0,0,1,.13-1.044h-.027c-1.231,1.665-2.951,2.828-4.181,2.828a1.721,1.721,0,0,1-1.859-1.886,5.706,5.706,0,0,1,.536-2.063c.4-.921.946-2.088,1.656-3.567l.485-1.044a2.693,2.693,0,0,1-1.29.331h-.035c-.041,0-.082,0-.123,0a1.917,1.917,0,0,1-.87-.209,10.8,10.8,0,0,1-1,3.441c-1.444,3.236-3.735,5.019-6.449,5.019a3.045,3.045,0,0,1-3.39-3.006v-.433c-1.577,2.077-2.909,3.363-4.665,3.363-1.183,0-1.861-.614-1.861-1.683a5.427,5.427,0,0,1,.459-1.783l2.753-5.859a2.779,2.779,0,0,0,.281-1.02c0-.335-.134-.485-.434-.485-1.113,0-2.456,1.543-3.594,4.128l-2.855,6.472h-3.136l4.024-9.3a2.744,2.744,0,0,0,.255-.892v-.075a.373.373,0,0,0-.37-.335l-.038,0c-.873,0-2.533,1.617-3.7,4.23l-2.8,6.345h-3.059l.944-2.141c-1.384,1.688-2.385,2.345-3.568,2.345a1.663,1.663,0,0,1-1.708-1.835,6.141,6.141,0,0,1,.051-.714c-.763.953-2.292,2.549-3.926,2.549a2.253,2.253,0,0,1-1.674-.6,2.4,2.4,0,0,1-.593-1.8c0-1.623.9-3.732,2.524-5.937a4.024,4.024,0,0,1-1.989.714c-.723,0-1.122-.353-1.122-.993a2.451,2.451,0,0,1,.3-.984,1.317,1.317,0,0,0,.155-.418.071.071,0,0,0,0-.024.129.129,0,0,0-.126-.106l-.024,0c-.314,0-1.4,1.129-2.373,3.286l-2.931,6.65h-2.982l.944-2.166c-1.163,1.44-2.624,2.369-3.722,2.369-1.115,0-1.656-.575-1.656-1.757a5.151,5.151,0,0,1,.1-.611c-.685.885-2.1,2.369-3.875,2.369a2.253,2.253,0,0,1-1.673-.6,2.41,2.41,0,0,1-.6-1.8c.024-1.708.993-3.907,2.728-6.191a9.438,9.438,0,0,1,7.035-3.872c1.649,0,2.921.249,3.165.619a.249.249,0,0,1,.022.247l-3.136,7.133a7.739,7.739,0,0,0-.79,2.268c0,.283.133.433.383.433,1.025,0,2.9-2.662,4-5.147l2.37-5.35h2.752l-.815,1.962c1.187-1.372,2.465-2.19,3.416-2.19.542,0,.817.24.817.713a4.121,4.121,0,0,1-.671,1.757,2.512,2.512,0,0,0-.375.842.247.247,0,0,0,.005.052.233.233,0,0,0,.226.183.228.228,0,0,0,.049-.005,4.965,4.965,0,0,0,2.193-1.3,8.887,8.887,0,0,1,5.455-2.217c1.649,0,2.921.249,3.165.619a.249.249,0,0,1,.022.247l-3.136,7.108c-.021.051-.046.109-.074.174a7.938,7.938,0,0,0-.665,1.992c0,.359.207.434.381.434,1.063,0,2.879-2.606,3.952-5.021l2.37-5.351h2.805l-.815,1.988a5.5,5.5,0,0,1,3.95-2.217,1.378,1.378,0,0,1,1.554,1.555,2.893,2.893,0,0,1-.051.662,6.149,6.149,0,0,1,4.283-2.216,1.546,1.546,0,0,1,1.682,1.58,7.853,7.853,0,0,1-.879,2.9l-.066.155-2.012,4.281-.054.132,0,.007h0a4.19,4.19,0,0,0-.351,1.108c0,.284.133.434.383.434.806,0,1.87-1.08,3.161-3.211a17.091,17.091,0,0,1,1.834-4.051,6.657,6.657,0,0,1,5.557-3.338,3.031,3.031,0,0,1,3.263,3.007,1.028,1.028,0,0,0,.994.458c.963,0,1.787-.651,2.447-1.936l.613-1.325h3.083l-2.676,5.835-1.3,2.853a4.287,4.287,0,0,0-.409,1.274v.1a.4.4,0,0,0,.395.359l.038,0c1.26,0,3.212-3.039,3.95-4.74l2.475-5.681h3.109l-2.55,5.835c-.011.027-1.4,3.291-1.5,3.515a2.185,2.185,0,0,0-.178.662c0,.275.116.408.356.408,1.223,0,3.187-3.283,4.055-5.02l2.345-5.35h2.879l-.766,1.834a5.505,5.505,0,0,1,3.85-2.063,1.721,1.721,0,0,1,1.887,1.783,13.357,13.357,0,0,1-1.543,4.074l-.114.232c-.419.863-1.018,2.109-1.377,2.955a3.457,3.457,0,0,0-.357,1.2c0,.236.137.356.408.356,1.181,0,3.169-2.8,4.408-5.5l1.785-3.949h-1.479l.435-.918h1.427l1.2-2.7.687-1.6h3.06l-1.886,4.305h1.989l-.408.918h-2.013c-.055.133-.213.489-.413.941l-.021.046c-.274.62-.649,1.469-1.021,2.326-.794,1.817-1.633,3.695-1.657,3.718a10.486,10.486,0,0,0-.969,3.39c0,.761.352,1.146,1.045,1.146a2.614,2.614,0,0,0,1.58-.611,11.371,11.371,0,0,0,2.4-2.651l.536.51a12.752,12.752,0,0,1-2.906,3.159A4.757,4.757,0,0,1-2222.223-1473.516Zm-28.269-12.994c-.6,0-1.121.421-1.937,1.554a19.383,19.383,0,0,0-3.136,7.44,1.552,1.552,0,0,0,.211,1.214.771.771,0,0,0,.606.237c.6,0,1.188-.408,1.783-1.247a20.12,20.12,0,0,0,3.237-8.051,1.276,1.276,0,0,0-.244-.95A.688.688,0,0,0-2250.492-1486.511Zm-26.969-.026h0c-1.384,0-2.823.914-4.052,2.573-1.615,2.222-2.805,4.879-2.83,6.319.022.493.258.713.764.714,1.191,0,2.675-1.874,4.181-5.275Zm-19.041,0h0c-1.384,0-2.823.914-4.052,2.573-1.616,2.224-2.806,4.881-2.83,6.319,0,.493.228.714.739.714,1.163,0,2.735-1.972,4.205-5.275Zm90.365,8.407h-3.323l2.808-6.479h-7.064l1.178-2.718h7.062l2.808-6.479h3.323l-2.808,6.479h7.063l-1.177,2.718h-7.062l-2.807,6.479Z" transform="translate(2334 1501.695)" fill="url(#linear-gradient)"/>
</svg>
