<svg xmlns="http://www.w3.org/2000/svg" xmlns:xlink="http://www.w3.org/1999/xlink" width="97.025" height="32" viewBox="0 0 97.025 32">
  <defs>
    <linearGradient id="linear-gradient" x1="0.5" x2="0.5" y2="1" gradientUnits="objectBoundingBox">
      <stop offset="0" stop-color="#4f44fb"/>
      <stop offset="1" stop-color="#7d5ade"/>
    </linearGradient>
  </defs>
  <path id="logo_hulu" d="M21.574,11.962q2.41,1.959,2.411,6.117V32H16.332V19.1a2.162,2.162,0,0,0-2.109-2.109H9.763a1.925,1.925,0,0,0-1.446.633,2.073,2.073,0,0,0-.6,1.476V32H0V0H7.714V10.426c.121-.04.4-.121.844-.241A6.856,6.856,0,0,1,10.305,10h4.942A9.726,9.726,0,0,1,21.574,11.962ZM45.861,10h7.714V23.5A8.935,8.935,0,0,1,51.5,29.65,7.142,7.142,0,0,1,45.861,32H38.268a8.995,8.995,0,0,1-6.358-2.2,8.145,8.145,0,0,1-2.381-6.3V10h7.714V22.9a2.058,2.058,0,0,0,2.049,2.049h4.46a2.073,2.073,0,0,0,1.476-.6,1.925,1.925,0,0,0,.633-1.446ZM59.42,0h7.714V32H59.42Zm37.6,10V23.5a8.934,8.934,0,0,1-2.079,6.147A7.142,7.142,0,0,1,89.311,32H81.778a9.082,9.082,0,0,1-6.418-2.2,8.145,8.145,0,0,1-2.38-6.3V10h7.714V22.9a2.058,2.058,0,0,0,2.049,2.049h4.52A2.058,2.058,0,0,0,89.311,22.9V10Z" fill="url(#linear-gradient)"/>
</svg>
