<svg xmlns="http://www.w3.org/2000/svg" xmlns:xlink="http://www.w3.org/1999/xlink" width="118.406" height="32" viewBox="0 0 118.406 32">
  <defs>
    <linearGradient id="linear-gradient" x1="0.5" x2="0.5" y2="1" gradientUnits="objectBoundingBox">
      <stop offset="0" stop-color="#4f44fb"/>
      <stop offset="1" stop-color="#7d5ade"/>
    </linearGradient>
  </defs>
  <path id="logo_netflix" d="M16.281,29.937c-1.781.313-3.594.407-5.469.656L5.094,13.844V31.313C3.312,31.5,1.688,31.75,0,32V0H4.75l6.5,18.157V0h5.031V29.937Zm9.844-18.219c1.938,0,4.906-.094,6.688-.094v5c-2.219,0-4.812,0-6.688.094v7.438c2.938-.187,5.875-.438,8.844-.531v4.812L21.125,29.531V0H34.969V5H26.125v6.719ZM53.562,5H48.375V28c-1.688,0-3.375,0-5,.062V5H38.188V0H53.563V5Zm8.125,6.375h6.844v5H61.687V27.719H56.781V0H70.75V5H61.687v6.375ZM78.875,23.344c2.844.062,5.719.281,8.5.437v4.938c-4.469-.281-8.937-.562-13.5-.656V0h5V23.344Zm12.719,5.719c1.594.094,3.281.188,4.906.375V0H91.594ZM118.406,0l-6.344,15.219L118.406,32c-1.875-.25-3.75-.594-5.625-.906l-3.594-9.25-3.656,8.5c-1.813-.313-3.563-.407-5.375-.657l6.437-14.656L100.781,0h5.375l3.281,8.406L112.938,0h5.469Z" transform="translate(0 0)" fill="url(#linear-gradient)"/>
</svg>
