<svg xmlns="http://www.w3.org/2000/svg" xmlns:xlink="http://www.w3.org/1999/xlink" width="84.342" height="32" viewBox="0 0 84.342 32">
  <defs>
    <linearGradient id="linear-gradient" x1="0.5" x2="0.5" y2="1" gradientUnits="objectBoundingBox">
      <stop offset="0" stop-color="#4f44fb"/>
      <stop offset="1" stop-color="#7d5ade"/>
    </linearGradient>
  </defs>
  <path id="logo_apple" d="M17.668,5.134A7.222,7.222,0,0,0,19.315,0a7.057,7.057,0,0,0-4.7,2.455,6.782,6.782,0,0,0-1.685,4.926,5.875,5.875,0,0,0,4.737-2.247M19.2,7.72c-2.621-.152-4.831,1.5-6.085,1.5S9.954,7.8,7.894,7.839a7.708,7.708,0,0,0-6.553,4.02c-2.809,4.868-.749,12.12,1.985,16.083C4.655,29.826,6.246,32.071,8.362,32s2.771-1.311,5.186-1.311S16.675,32,18.772,31.951s3.557-1.887,4.868-3.932a17.445,17.445,0,0,0,2.191-4.531A7.141,7.141,0,0,1,21.581,17a7.3,7.3,0,0,1,3.426-6.1,7.473,7.473,0,0,0-5.8-3.183m16.72-3.775V9.287h4.269v3.529H35.923V25.464c0,1.887.843,2.85,2.715,2.85a14.008,14.008,0,0,0,1.535-.112v3.557a14.647,14.647,0,0,1-2.528.187c-4.419,0-6.123-1.717-6.123-6.021V12.9H28.172V9.362h3.258V3.945Zm19.191,27.81H50.434L42.57,9.362h4.662l5.523,17.989h.112L58.391,9.362H62.96Zm20.558,0H71.629V22.577H62.941V18.536H71.61V9.362h4.044v9.174h8.688v4.041H75.673Z" transform="translate(0)" fill="url(#linear-gradient)"/>
</svg>
