<svg xmlns="http://www.w3.org/2000/svg" xmlns:xlink="http://www.w3.org/1999/xlink" width="128" height="39.386" viewBox="0 0 128 39.386">
  <defs>
    <linearGradient id="linear-gradient" x1="0.5" x2="0.5" y2="1" gradientUnits="objectBoundingBox">
      <stop offset="0" stop-color="#4f44fb"/>
      <stop offset="1" stop-color="#7d5ade"/>
    </linearGradient>
  </defs>
  <path id="logo_prime" d="M-2451.583-1697.566v-.064c-.88-.048-1.759-.08-2.639-.144a45.8,45.8,0,0,1-6.926-1.055,46.906,46.906,0,0,1-20.76-10.812c-.56-.5-1.087-1.008-1.631-1.519a1.178,1.178,0,0,1-.3-.432.588.588,0,0,1,.112-.639.565.565,0,0,1,.64-.144,3.39,3.39,0,0,1,.416.208,62.225,62.225,0,0,0,18.585,7.677q3.311.768,6.67,1.2a61.358,61.358,0,0,0,9.692.432,51.274,51.274,0,0,0,5.2-.432,62.846,62.846,0,0,0,11.868-2.7,55.946,55.946,0,0,0,5.95-2.335,1.335,1.335,0,0,1,.959-.128.994.994,0,0,1,.72,1.2,1.114,1.114,0,0,1-.08.208,1.757,1.757,0,0,1-.528.608,35.594,35.594,0,0,1-5.918,3.758,46.876,46.876,0,0,1-12.523,4.239,54.857,54.857,0,0,1-7.581.816v.064Zm28.725-2.783a1.744,1.744,0,0,1,.112-.48c.56-1.5,1.1-2.991,1.535-4.542a15.863,15.863,0,0,0,.544-2.591,4.812,4.812,0,0,0,.016-.959,1.249,1.249,0,0,0-.9-1.168,6.2,6.2,0,0,0-1.535-.288,25.253,25.253,0,0,0-4.4.192l-1.936.24a.478.478,0,0,1-.512-.192.54.54,0,0,1,.048-.576,1.6,1.6,0,0,1,.479-.448,10.981,10.981,0,0,1,3.919-1.7,19.081,19.081,0,0,1,3.311-.368,13.636,13.636,0,0,1,3.119.368,5.189,5.189,0,0,1,.832.3,1.078,1.078,0,0,1,.656.88,6.561,6.561,0,0,1,.048,1.375,17.637,17.637,0,0,1-2.463,7.725,10.664,10.664,0,0,1-1.855,2.287,1.317,1.317,0,0,1-.512.32.574.574,0,0,1-.147.021C-2422.711-1699.944-2422.845-1700.1-2422.858-1700.349Zm-92.125-13.739c-.016-5.582-.016-11.2-.016-16.794a1.114,1.114,0,0,1,.959-.32c.48.016.976,0,1.456,0a.634.634,0,0,1,.72.544c.048.16.08.32.128.48,0,.016.032.032.064.048a1.28,1.28,0,0,0,.336-.24,5.652,5.652,0,0,1,4.782-1.072,4.628,4.628,0,0,1,3.2,2.735,7.283,7.283,0,0,1,.624,2.4,9.89,9.89,0,0,1-.352,3.983,5.919,5.919,0,0,1-1.663,2.671,4.692,4.692,0,0,1-3.759,1.167,5.369,5.369,0,0,1-2.783-1.1c-.112.1-.064.224-.064.336v4.558c0,.991,0,.991-1.008.991-.576,0-1.152-.016-1.728,0l-.1,0A.844.844,0,0,1-2514.984-1714.088Zm3.935-14.3a.485.485,0,0,0-.32.5c.016.96,0,1.919,0,2.879v2.895a.453.453,0,0,0,.272.448,4.39,4.39,0,0,0,2.335.512,2.278,2.278,0,0,0,1.471-.56,2.465,2.465,0,0,0,.736-1.28,7.994,7.994,0,0,0,.192-3.023,4.471,4.471,0,0,0-.416-1.631,1.953,1.953,0,0,0-1.52-1.151,3.807,3.807,0,0,0-.752-.075A4.663,4.663,0,0,0-2511.049-1728.386Zm52.364,9.868a5,5,0,0,1-4.094-3.838,8.829,8.829,0,0,1,.032-4.99,5.456,5.456,0,0,1,4.926-4.094,7.156,7.156,0,0,1,3.183.3,3.814,3.814,0,0,1,2.4,4.8,2.975,2.975,0,0,1-1.472,1.791,5.847,5.847,0,0,1-2,.64,10.653,10.653,0,0,1-3.63-.048,4.293,4.293,0,0,0-.448-.064,2.678,2.678,0,0,0,2.159,2.879,7.932,7.932,0,0,0,3.007-.032c.464-.1.911-.192,1.375-.3s.656.032.656.512c0,.4-.016.8,0,1.184a.733.733,0,0,1-.544.784,9.672,9.672,0,0,1-1.887.512,11.95,11.95,0,0,1-1.863.158A8.223,8.223,0,0,1-2458.685-1718.518Zm-.751-8.989a4.333,4.333,0,0,0-.3,1.1c-.032.256-.032.256.208.288a12.505,12.505,0,0,0,1.887.144,3.234,3.234,0,0,0,1.039-.08,1.428,1.428,0,0,0,1.216-.928,1.836,1.836,0,0,0,.048-.832,1.221,1.221,0,0,0-.736-1.008,2.612,2.612,0,0,0-.848-.192q-.1-.007-.207-.007A2.351,2.351,0,0,0-2459.437-1727.506Zm51.485,8.925a4.915,4.915,0,0,1-3.663-3.423,8.878,8.878,0,0,1-.064-5.358,5.57,5.57,0,0,1,5.566-4.111,7.077,7.077,0,0,1,2.383.3,3.707,3.707,0,0,1,2.623,2.8,4.344,4.344,0,0,1,.016,1.759,2.975,2.975,0,0,1-1.615,2.127,6.56,6.56,0,0,1-2.687.688,12.613,12.613,0,0,1-3.2-.192.51.51,0,0,0-.224-.032,6.576,6.576,0,0,0,.176.976,2.505,2.505,0,0,0,2.111,1.919,8.093,8.093,0,0,0,3.279-.112c.352-.08.688-.16,1.039-.256.464-.112.656.048.672.512v1.152a.711.711,0,0,1-.576.832,10.169,10.169,0,0,1-3.439.656q-.172.007-.344.007A8.675,8.675,0,0,1-2407.952-1718.582Zm-.144-9.517a3.966,3.966,0,0,0-.64,1.743c-.032.144.032.208.176.224a15.555,15.555,0,0,0,1.936.16,4.1,4.1,0,0,0,.991-.08,1.41,1.41,0,0,0,1.28-.992,1.429,1.429,0,0,0-1.184-1.935c-.08,0-.144-.032-.224-.032a3.782,3.782,0,0,0-.389-.021A2.3,2.3,0,0,0-2408.1-1728.1Zm13.035,9.5a5.1,5.1,0,0,1-3.758-3.359,8.555,8.555,0,0,1-.016-6.046,5.25,5.25,0,0,1,4.463-3.519,7.867,7.867,0,0,1,3.055.112,5.38,5.38,0,0,1,4.079,4.047,5.555,5.555,0,0,1,.176.9c0,.016.016.016.016.032h-.032v.16h.016a.016.016,0,0,0-.016.016v.128a.23.23,0,0,0,.064.24v-.064c0,.016.016.016.016.032v1.839a.121.121,0,0,0-.032.064v-.032c-.1.064-.08.144-.064.24v.224h.016a5.5,5.5,0,0,1-4.974,5.15,7.623,7.623,0,0,1-1.079.076A8.1,8.1,0,0,1-2395.061-1718.6Zm1.583-10.2a2.085,2.085,0,0,0-1.631.991,3.582,3.582,0,0,0-.432,1.056,8.76,8.76,0,0,0-.128,2.815,4.584,4.584,0,0,0,.432,1.583,2.055,2.055,0,0,0,1.5,1.2,2.909,2.909,0,0,0,.911.032,2.071,2.071,0,0,0,1.52-.864,2.931,2.931,0,0,0,.448-.928,5.845,5.845,0,0,0,.224-2.047,7.787,7.787,0,0,0-.016-.864,4.724,4.724,0,0,0-.464-1.807,2.062,2.062,0,0,0-1.456-1.136,2.59,2.59,0,0,0-.534-.053A3.565,3.565,0,0,0-2393.478-1728.8Zm-29.541,10.092a4.6,4.6,0,0,1-2.767-2.447,7.614,7.614,0,0,1-.8-3.407,9.071,9.071,0,0,1,.56-3.695,5.03,5.03,0,0,1,2.495-2.847,5.317,5.317,0,0,1,5.166.336c.112.064.192.16.336.176.08-.112.032-.224.032-.336v-5.182c0-.608.112-.72.72-.72h2.223c.48,0,.608.112.624.608v16.858c-.016.464-.144.608-.592.608-.56.016-1.12,0-1.7,0h-.384a.567.567,0,0,1-.56-.432,2.262,2.262,0,0,0-.176-.56c-.144.032-.208.144-.32.208a5.223,5.223,0,0,1-3.163,1.1A5.694,5.694,0,0,1-2423.018-1718.71Zm2.3-10.172a2.064,2.064,0,0,0-1.679,1.072,3.687,3.687,0,0,0-.32.784,8.276,8.276,0,0,0-.192,3.007,4.432,4.432,0,0,0,.448,1.615,2.19,2.19,0,0,0,1.711,1.184,3.945,3.945,0,0,0,2.511-.48.421.421,0,0,0,.256-.448v-2.911c0-.976-.016-1.935.016-2.927a.441.441,0,0,0-.288-.464,4.886,4.886,0,0,0-2.032-.452Q-2420.5-1728.9-2420.715-1728.882Zm-55.02,10.172c-.592,0-.72-.144-.72-.736v-7.565a3.681,3.681,0,0,0-.08-.832,1.208,1.208,0,0,0-1.12-.959,5.629,5.629,0,0,0-2.8.544.255.255,0,0,0-.176.3v8.525c0,.592-.128.72-.72.72h-2.143c-.56,0-.7-.16-.7-.7v-11.1a1.564,1.564,0,0,1,.048-.384.466.466,0,0,1,.448-.3h2a.577.577,0,0,1,.56.448c.08.224.128.432.208.672.16,0,.256-.112.368-.176a8.305,8.305,0,0,1,2.847-1.2,6.05,6.05,0,0,1,2.4,0,3,3,0,0,1,1.855,1.247.7.7,0,0,0,.1.112c-.016.016,0,.016.016.048.4-.24.816-.5,1.248-.72a7.151,7.151,0,0,1,3.63-.8,3.378,3.378,0,0,1,2.383.976,3.4,3.4,0,0,1,.9,2.223c.016.176.016.352.016.544v8.285c0,.72-.1.816-.816.816h-1.951a3.058,3.058,0,0,1-.384-.016.441.441,0,0,1-.384-.368,2.9,2.9,0,0,1-.032-.528v-7.405a2.705,2.705,0,0,0-.1-.88,1.2,1.2,0,0,0-1.087-.88,5.645,5.645,0,0,0-2.751.528.263.263,0,0,0-.192.288v8.413a2.247,2.247,0,0,1-.032.464.383.383,0,0,1-.4.384c-.24.016-.48.016-.736.016Zm43.792-.016a.446.446,0,0,1-.5-.464,1.952,1.952,0,0,1-.016-.3v-11.068c.016-.5.144-.64.64-.64h2.3c.5,0,.64.144.64.64v11.356a.458.458,0,0,1-.5.48c-.432.008-.86.012-1.288.012S-2431.511-1718.718-2431.943-1718.726Zm-7.149,0q-1.056-.024-2.111,0a.9.9,0,0,1-.959-.656c-.4-1.056-.816-2.127-1.216-3.183-.959-2.511-1.935-5.022-2.9-7.549a2.865,2.865,0,0,1-.208-.624c-.048-.32.064-.48.384-.48.912-.016,1.823,0,2.719,0,.384,0,.56.256.656.592.176.608.352,1.232.544,1.839.656,2.223,1.3,4.462,1.951,6.685-.016.016,0,.016.032.016.1-.32.192-.624.288-.944.736-2.479,1.472-4.942,2.208-7.421l.1-.288a.653.653,0,0,1,.64-.464h2.431c.608,0,.736.176.528.751l-.959,2.543c-1.072,2.783-2.144,5.582-3.215,8.365-.032.1-.08.192-.112.288a.781.781,0,0,1-.733.531Zm-60.521,0a2.573,2.573,0,0,1-.352-.016.428.428,0,0,1-.384-.4,3.111,3.111,0,0,1-.016-.384V-1730.4c0-.736.08-.816.815-.816h1.536a.635.635,0,0,1,.72.544c.112.4.208.8.3,1.231a.478.478,0,0,0,.272-.192,11.1,11.1,0,0,1,.911-.816,4.258,4.258,0,0,1,2.911-.88c.416.016.56.144.592.544.032.544.016,1.1.016,1.647a3,3,0,0,1-.032.656.458.458,0,0,1-.464.432,4.492,4.492,0,0,1-.656-.016,7.665,7.665,0,0,0-3.119.448c-.224.08-.224.24-.224.416v7.677a3.585,3.585,0,0,1-.016.416.386.386,0,0,1-.384.368,2.573,2.573,0,0,1-.352.016Zm9.517-.032a1.048,1.048,0,0,1-.224-.016.463.463,0,0,1-.432-.416,3.107,3.107,0,0,1-.016-.384c.016-1.775.016-3.6.016-5.422v-5.678c.016-.384.16-.528.544-.544q1.248-.024,2.495,0c.368,0,.48.112.512.48a3.591,3.591,0,0,1,.016.416v10.652c0,.176-.016.352-.032.528a.4.4,0,0,1-.384.368,1.543,1.543,0,0,1-.272.016Zm103.065-5.054Zm-43.728-9.324a2.971,2.971,0,0,1-.528-.064,1.809,1.809,0,0,1-1.408-2.111,1.792,1.792,0,0,1,1.711-1.615,1.186,1.186,0,0,1,.336-.016,1.934,1.934,0,0,1,.944.16,1.682,1.682,0,0,1,1.088,1.488,1.871,1.871,0,0,1-2.063,2.16Zm-58.746-.048a1.79,1.79,0,0,1-1.52-2,1.862,1.862,0,0,1,2.127-1.759,2,2,0,0,1,.752.112,1.814,1.814,0,0,1,1.232,2.015,1.786,1.786,0,0,1-1.52,1.631,3,3,0,0,1-.536.048A3,3,0,0,1-2489.505-1733.184Z" transform="translate(2515 1736.951)" fill="url(#linear-gradient)"/>
</svg>
