<svg xmlns="http://www.w3.org/2000/svg" xmlns:xlink="http://www.w3.org/1999/xlink" width="117.791" height="64" viewBox="0 0 117.791 64">
  <defs>
    <linearGradient id="linear-gradient" x1="0.5" x2="0.5" y2="1" gradientUnits="objectBoundingBox">
      <stop offset="0" stop-color="#4f44fb"/>
      <stop offset="1" stop-color="#7d5ade"/>
    </linearGradient>
  </defs>
  <path id="logo_disney" d="M-2575.41-1714.953a4.351,4.351,0,0,1-2.28-3.3c-.274-2.311.754-6.218,2.857-10.7a6.149,6.149,0,0,1-.674-4.45,13.067,13.067,0,0,1,4.312-7.162s.453-.392.716-.271c.29.121.156,1.347-.074,1.943s-1.923,3.508-1.923,3.508a6.531,6.531,0,0,0-.755,3.523c1.984-3.05,6.494-9.2,9.29-7.262a4.55,4.55,0,0,1,1.372,3.708,8.4,8.4,0,0,1-.95,3.955c-1.051,1.833-4.018,5.673-7.961,4.767a41.015,41.015,0,0,0-3.021,11.131s-.1.674-.607.674A.786.786,0,0,1-2575.41-1714.953Zm9.734-21.212a28.865,28.865,0,0,0-4.34,6.109,7.2,7.2,0,0,0,3.505-1.447,5.831,5.831,0,0,0,2.176-4.786s-.065-.5-.429-.5C-2564.963-1736.792-2565.255-1736.64-2565.676-1736.165Zm-77,13.208a1.967,1.967,0,0,1-1.068-1.7c-.1-.6-.2-1.645-.2-1.645s-.521-.247-.956-.463a24.713,24.713,0,0,1-3.709-2.273c-.307-.229-1.626-1.334-1.917-1.608a10.881,10.881,0,0,1-2.11-2.536,2.427,2.427,0,0,1-.229-2.279c.456-1.142,2.093-2,3.213-2.491a26.735,26.735,0,0,1,4.441-1.353c.5-.072,1.28-.211,1.328-.242a.293.293,0,0,0,.047-.044c.025-.034.066-1.165.058-1.578s.3-3.076.4-3.641a6.6,6.6,0,0,1,.52-1.789.47.47,0,0,1,.65-.055c1.219.758,1.588,3.385,1.679,4.721.054.814.081,2.039.081,2.039s1.4-.041,2.257-.017a20.3,20.3,0,0,1,2.623.29,18.478,18.478,0,0,1,4.515,1.279,4.6,4.6,0,0,1,2.288,2.314,2.356,2.356,0,0,1-.194,2.2,3.074,3.074,0,0,1-2.371,1.558,3.9,3.9,0,0,1-1.667-.376.29.29,0,0,1-.029-.405c.035-.043.53-.307.822-.46a1.882,1.882,0,0,0,.382-.27c.243-.214.461-.449.437-.725-.033-.358-.412-.579-.773-.721a28.278,28.278,0,0,0-6.713-1.329c-.64-.038-1.55-.07-1.55-.07l.192,9.028s.752.143,1.346.24c.34.052,1.782.181,2.165.191a19.947,19.947,0,0,0,8.851-1.448,9.222,9.222,0,0,0,3.07-2.174,6.314,6.314,0,0,0,1.49-4.685,12.22,12.22,0,0,0-2.6-5.6c-2.86-3.678-7.762-6.7-12.075-8.477a38.473,38.473,0,0,0-13.427-3.025,22.275,22.275,0,0,0-5.159.383c-.19.053-.381.117-.557.157a1.55,1.55,0,0,0-.418.175.665.665,0,0,0-.066.064s.082.045.16.078c.141.061.733.1,1.039.154a1,1,0,0,1,.672.4.4.4,0,0,1-.007.5c-.3.366-1.433.3-1.932.225-.518-.083-1.163-.241-1.281-.692a2.11,2.11,0,0,1,.388-1.534,3.7,3.7,0,0,1,2.482-1.778,25.247,25.247,0,0,1,5.234-.822,30.557,30.557,0,0,1,10.17,1.5,48.612,48.612,0,0,1,6.321,2.459,49.63,49.63,0,0,1,4.6,2.592c.371.245,2.545,1.842,2.882,2.123.7.576,1.625,1.4,2.292,2.065a21.3,21.3,0,0,1,3.676,4.8c.188.373.333.739.575,1.171a10.342,10.342,0,0,1,.5,1.288c.059.253.145.625.157.64a9.194,9.194,0,0,1,.169,1.189,11.22,11.22,0,0,1-.134,2.19,10.067,10.067,0,0,1-.409,1.439,16.233,16.233,0,0,1-.74,1.482,12.27,12.27,0,0,1-2.093,2.567,17.463,17.463,0,0,1-8.892,3.483,22.656,22.656,0,0,1-6.633-.192c-.754-.137-1.876-.4-1.876-.4s0,.448-.032.764a3.167,3.167,0,0,1-.187.646,1.021,1.021,0,0,1-.8.572,3.57,3.57,0,0,1-.646.067A1.831,1.831,0,0,1-2642.679-1722.957Zm-3.52-13.325a24.893,24.893,0,0,0-4.625.956c-.38.136-1.151.459-1.218.849a1.308,1.308,0,0,0,.46,1.048c.162.19,1.076,1.069,1.332,1.283a23.067,23.067,0,0,0,4.857,2.952c.551.228,1.463.555,1.463.555s-.068-2.6-.056-5.154c.007-1.349.036-2.685.036-2.685S-2645.282-1736.383-2646.2-1736.281Zm62.063,10.447s-1.352.087-2.494-1.737c-1.064-1.738.4-5.029.4-5.029s-.672-1.537-.185-2.057a1.986,1.986,0,0,1,1.135-.323l1.035-2.142a2.4,2.4,0,0,1-1.88-.786c-.653-.823-.708-1.2-.208-1.428a35.174,35.174,0,0,1,8.825-1.047s1.174-.115,2.193,1.922c0,0,.494.824-.345,1.022a52.929,52.929,0,0,1-5.93.586l-.542,1.7a24.094,24.094,0,0,1,3.709-.02s.506-.059.565.574a9.825,9.825,0,0,1-.05,1.224s-.033.384-.576.481c-.589.1-4.627.254-4.627.254l-.654,2.212s-.243.511.3.365a37.662,37.662,0,0,1,5.288-.815,1.508,1.508,0,0,1,1.055,1.652c-.218.86-4.17,3.4-6.756,3.4C-2583.962-1725.826-2584.051-1725.829-2584.137-1725.835Zm32.791-.47a.54.54,0,0,1-.4-.181.54.54,0,0,1-.139-.425,52.56,52.56,0,0,0,.312-5.962c0-.312,0-.644-.008-1.014h-7.052a.588.588,0,0,1-.587-.587v-1.5a.587.587,0,0,1,.587-.585h6.952a52.849,52.849,0,0,0-.921-7.169.492.492,0,0,1,.1-.406.487.487,0,0,1,.376-.179h1.666a.538.538,0,0,1,.528.44,56.91,56.91,0,0,1,.906,7.313h7.226a.588.588,0,0,1,.587.587v1.5a.589.589,0,0,1-.587.588h-7.128c0,.371.008.7.008,1.014a55.452,55.452,0,0,1-.3,6.041.584.584,0,0,1-.582.527Zm-65.354-.111c-.9-.185-1.187-.761-1.314-1.646a44.214,44.214,0,0,1,.022-8.01,17.406,17.406,0,0,1,.579-3.206c.1-.262.323-.79.7-.715a1.219,1.219,0,0,1,.206.06,1.8,1.8,0,0,1,1.014,1.42,42.989,42.989,0,0,1,.556,5.887c.043.938.066,1.862.105,2.789a11.11,11.11,0,0,1-.068,2.566,1.207,1.207,0,0,1-.49.73,1.725,1.725,0,0,1-.837.167A2.459,2.459,0,0,1-2616.7-1726.416Zm6.158-1.205a5.975,5.975,0,0,1-2.524-2.146,2.137,2.137,0,0,1,.1-2.3c.781-1.07,2.455-1.3,3.715-1.26a15.394,15.394,0,0,1,3.6.659,6.927,6.927,0,0,1,1.348.622.448.448,0,0,1,.138.44c-.209.638-1.758.974-2.206,1.041-1.2.184-1.819-.27-3.181-.807a4.694,4.694,0,0,0-1.133-.311c-.618-.059-1.365.115-1.483.789-.059.348.349.673.66.81a4.984,4.984,0,0,0,2.043.436,10.7,10.7,0,0,0,6.249-1.545.971.971,0,0,0,.474-.731c.007-.632-1.1-1.019-1.1-1.019a18.012,18.012,0,0,0-4.446-.817c-1.169-.1-3.009-.252-3.45-.317a5.208,5.208,0,0,1-1.342-.333,1.671,1.671,0,0,1-.9-1.021,3.164,3.164,0,0,1,.5-2.414c1.161-1.669,3.88-2.3,5.911-2.554,1.966-.245,5.145-.242,7.076.784.3.16.45.309.388.627a1.548,1.548,0,0,1-1.12,1.153,12.4,12.4,0,0,1-2.275.286c-2.328.131-5.142.062-7.359.667a1.536,1.536,0,0,0-.571.24c-.347.377.644.485.857.528a.841.841,0,0,0,.141.024l4.9.578.143.02a11.09,11.09,0,0,1,2.9.692,3,3,0,0,1,1.569,1.476,4.562,4.562,0,0,1,.1,3.866,4.581,4.581,0,0,1-2.112,2.012,7.842,7.842,0,0,1-2.634.714,8.252,8.252,0,0,1-.9.049A9.533,9.533,0,0,1-2610.542-1727.621Zm11.525.184c-.4-.657-.567-2.219-.348-4.962.257-2.748.9-5.672,1.711-6.583a1.051,1.051,0,0,1,1.723-.01,19.836,19.836,0,0,1,2.886,3.887l.317.536a24.543,24.543,0,0,0,1.8,2.733s.134.126.252.035c.171-.049.1-.927.1-.927a52.788,52.788,0,0,0-1.828-8.039,2.375,2.375,0,0,1-.073-1.221c.151-.6.75-.316.75-.316s2.309,1.161,3.429,4.919a13.583,13.583,0,0,1-.075,8.178,2.246,2.246,0,0,1-3,1.43c-1.4-.677-3.637-5.25-3.637-5.25s-.848-1.705-1.011-1.661c0,0-.183-.333-.3,1.531s.022,5.474-.718,6.043a1.353,1.353,0,0,1-.859.325A1.371,1.371,0,0,1-2599.016-1727.437Zm-20.739-14.3a2.039,2.039,0,0,1-.651-1.44,4.3,4.3,0,0,0-.013-.689,4.467,4.467,0,0,0-.585-.992,3.9,3.9,0,0,1-.4-1.448,4.838,4.838,0,0,1,1.52-3.478,10.049,10.049,0,0,1,3.38-2.313,6.628,6.628,0,0,1,4.342-.4,3.292,3.292,0,0,1,1.347.908,1,1,0,0,0,.184.21,1.384,1.384,0,0,0,.339.075,3.389,3.389,0,0,1,1.292.612,2.473,2.473,0,0,1,.908,1.454,4,4,0,0,1-1.239,3.357,12.276,12.276,0,0,1-4.455,3.059,7.133,7.133,0,0,1-2.829.5c-.27-.022-.547-.094-.81-.111a3.731,3.731,0,0,1-.677-.174c-.065-.05-.149-.094-.164-.076a4.96,4.96,0,0,0-.371.642,1.281,1.281,0,0,1-.282.326.71.71,0,0,1-.415.165A.637.637,0,0,1-2619.755-1741.741Zm8-7.747a3.659,3.659,0,0,0-.968.408,14.743,14.743,0,0,0-3.568,3.153c-.2.262-.4.555-.558.756-.1.124-.176.238-.167.268a5.05,5.05,0,0,0,1.657.084,7.631,7.631,0,0,0,3.205-.959c.976-.546,2.411-1.611,2.262-2.863a1.054,1.054,0,0,0-.646-.854,1.3,1.3,0,0,0-.535-.129A2.466,2.466,0,0,0-2611.758-1749.488Zm-4.683-.293a5.313,5.313,0,0,0-1.911,1.075c-.722.618-1.517,1.624-1.157,2.516.052.126.133.3.133.3s.379-.568.7-1a17.979,17.979,0,0,1,2.411-2.547c.241-.206.525-.439.525-.439S-2616.189-1749.832-2616.441-1749.781Zm63.523,2.665a.679.679,0,0,1-.626-.415,47.214,47.214,0,0,0-17.087-20.743,46.883,46.883,0,0,0-26.356-8.057,47.182,47.182,0,0,0-22.4,5.661A47.59,47.59,0,0,0-2636-1755.661a.72.72,0,0,1-.6.318.776.776,0,0,1-.233-.037l-1.3-.436a.6.6,0,0,1-.367-.369.58.58,0,0,1,.068-.514,49.68,49.68,0,0,1,41.436-22.187,49.505,49.505,0,0,1,28.109,8.687,49.683,49.683,0,0,1,18.006,22.34.538.538,0,0,1-.053.5.541.541,0,0,1-.447.239Z" transform="translate(2659.002 1778.885)" fill="url(#linear-gradient)"/>
</svg>
