<svg xmlns="http://www.w3.org/2000/svg" xmlns:xlink="http://www.w3.org/1999/xlink" width="248" height="88" viewBox="0 0 248 88">
  <defs>
    <clipPath id="clip-path">
      <rect width="248" height="88" fill="none"/>
    </clipPath>
  </defs>
  <g id="_03.Dots" data-name="03.Dots" clip-path="url(#clip-path)">
    <g transform="translate(-134 -2559)">
      <circle id="Elipse_7" data-name="Elipse 7" cx="4" cy="4" r="4" transform="translate(134 2559)" fill="#2c394a"/>
    </g>
    <g transform="translate(-94 -2559)">
      <circle id="Elipse_7-2" data-name="Elipse 7" cx="4" cy="4" r="4" transform="translate(134 2559)" fill="#2c394a"/>
    </g>
    <g transform="translate(-54 -2559)">
      <circle id="Elipse_7-3" data-name="Elipse 7" cx="4" cy="4" r="4" transform="translate(134 2559)" fill="#2c394a"/>
    </g>
    <g transform="translate(-14 -2559)">
      <circle id="Elipse_7-4" data-name="Elipse 7" cx="4" cy="4" r="4" transform="translate(134 2559)" fill="#2c394a"/>
    </g>
    <g transform="translate(26 -2559)">
      <circle id="Elipse_7-5" data-name="Elipse 7" cx="4" cy="4" r="4" transform="translate(134 2559)" fill="#2c394a"/>
    </g>
    <g transform="translate(66 -2559)">
      <circle id="Elipse_7-6" data-name="Elipse 7" cx="4" cy="4" r="4" transform="translate(134 2559)" fill="#2c394a"/>
    </g>
    <g transform="translate(106 -2559)">
      <circle id="Elipse_7-7" data-name="Elipse 7" cx="4" cy="4" r="4" transform="translate(134 2559)" fill="#2c394a"/>
    </g>
    <g transform="translate(-134 -2519)">
      <circle id="Elipse_7-8" data-name="Elipse 7" cx="4" cy="4" r="4" transform="translate(134 2559)" fill="#2c394a"/>
    </g>
    <g transform="translate(-94 -2519)">
      <circle id="Elipse_7-9" data-name="Elipse 7" cx="4" cy="4" r="4" transform="translate(134 2559)" fill="#2c394a"/>
    </g>
    <g transform="translate(-54 -2519)">
      <circle id="Elipse_7-10" data-name="Elipse 7" cx="4" cy="4" r="4" transform="translate(134 2559)" fill="#2c394a"/>
    </g>
    <g transform="translate(-14 -2519)">
      <circle id="Elipse_7-11" data-name="Elipse 7" cx="4" cy="4" r="4" transform="translate(134 2559)" fill="#2c394a"/>
    </g>
    <g transform="translate(26 -2519)">
      <circle id="Elipse_7-12" data-name="Elipse 7" cx="4" cy="4" r="4" transform="translate(134 2559)" fill="#2c394a"/>
    </g>
    <g transform="translate(66 -2519)">
      <circle id="Elipse_7-13" data-name="Elipse 7" cx="4" cy="4" r="4" transform="translate(134 2559)" fill="#2c394a"/>
    </g>
    <g transform="translate(106 -2519)">
      <circle id="Elipse_7-14" data-name="Elipse 7" cx="4" cy="4" r="4" transform="translate(134 2559)" fill="#2c394a"/>
    </g>
    <g transform="translate(-134 -2479)">
      <circle id="Elipse_7-15" data-name="Elipse 7" cx="4" cy="4" r="4" transform="translate(134 2559)" fill="#2c394a"/>
    </g>
    <g transform="translate(-94 -2479)">
      <circle id="Elipse_7-16" data-name="Elipse 7" cx="4" cy="4" r="4" transform="translate(134 2559)" fill="#2c394a"/>
    </g>
    <g transform="translate(-54 -2479)">
      <circle id="Elipse_7-17" data-name="Elipse 7" cx="4" cy="4" r="4" transform="translate(134 2559)" fill="#2c394a"/>
    </g>
    <g transform="translate(-14 -2479)">
      <circle id="Elipse_7-18" data-name="Elipse 7" cx="4" cy="4" r="4" transform="translate(134 2559)" fill="#2c394a"/>
    </g>
    <g transform="translate(26 -2479)">
      <circle id="Elipse_7-19" data-name="Elipse 7" cx="4" cy="4" r="4" transform="translate(134 2559)" fill="#2c394a"/>
    </g>
    <g transform="translate(66 -2479)">
      <circle id="Elipse_7-20" data-name="Elipse 7" cx="4" cy="4" r="4" transform="translate(134 2559)" fill="#2c394a"/>
    </g>
    <g transform="translate(106 -2479)">
      <circle id="Elipse_7-21" data-name="Elipse 7" cx="4" cy="4" r="4" transform="translate(134 2559)" fill="#2c394a"/>
    </g>
  </g>
</svg>
