<svg xmlns="http://www.w3.org/2000/svg" xmlns:xlink="http://www.w3.org/1999/xlink" width="88" height="88" viewBox="0 0 88 88">
  <defs>
    <clipPath id="clip-path">
      <rect width="88" height="88" fill="none"/>
    </clipPath>
  </defs>
  <g id="_06.Dots" data-name="06.Dots" transform="translate(0 88) rotate(-90)" clip-path="url(#clip-path)">
    <g transform="translate(-134 -2559)">
      <circle id="Elipse_7" data-name="Elipse 7" cx="4" cy="4" r="4" transform="translate(134 2559)" fill="#4f44fb"/>
    </g>
    <g transform="translate(-94 -2559)">
      <circle id="Elipse_7-2" data-name="Elipse 7" cx="4" cy="4" r="4" transform="translate(134 2559)" fill="#4f44fb"/>
    </g>
    <g transform="translate(-54 -2559)">
      <circle id="Elipse_7-3" data-name="Elipse 7" cx="4" cy="4" r="4" transform="translate(134 2559)" fill="#4f44fb"/>
    </g>
    <g transform="translate(-134 -2519)">
      <circle id="Elipse_7-4" data-name="Elipse 7" cx="4" cy="4" r="4" transform="translate(134 2559)" fill="#4f44fb"/>
    </g>
    <g transform="translate(-94 -2519)">
      <circle id="Elipse_7-5" data-name="Elipse 7" cx="4" cy="4" r="4" transform="translate(134 2559)" fill="#4f44fb"/>
    </g>
    <g transform="translate(-54 -2519)">
      <circle id="Elipse_7-6" data-name="Elipse 7" cx="4" cy="4" r="4" transform="translate(134 2559)" fill="#4f44fb"/>
    </g>
    <g transform="translate(-134 -2479)">
      <circle id="Elipse_7-7" data-name="Elipse 7" cx="4" cy="4" r="4" transform="translate(134 2559)" fill="#4f44fb"/>
    </g>
    <g transform="translate(-94 -2479)">
      <circle id="Elipse_7-8" data-name="Elipse 7" cx="4" cy="4" r="4" transform="translate(134 2559)" fill="#4f44fb"/>
    </g>
    <g transform="translate(-54 -2479)">
      <circle id="Elipse_7-9" data-name="Elipse 7" cx="4" cy="4" r="4" transform="translate(134 2559)" fill="#4f44fb"/>
    </g>
  </g>
</svg>
