<svg xmlns="http://www.w3.org/2000/svg" width="69.455" height="16" viewBox="0 0 69.455 16">
  <path id="label_paramount_" data-name="label_paramount+" d="M-2330.367-1485.7c-.218,0-.424-.013-.624-.026-1.949-.188-3.045-1.187-3.009-2.739.01-.436.142-.955.714-.955h.071a.553.553,0,0,1,.389.174.554.554,0,0,1,.152.4,2.117,2.117,0,0,1-.035.294,2.576,2.576,0,0,0-.042.382,1.949,1.949,0,0,0,1.772,2.05,4.309,4.309,0,0,0,.573.038,4.528,4.528,0,0,0,3.741-1.992,21.226,21.226,0,0,0,2.366-4.447c1.006-2.285,2.046-4.649,3.77-5.994a5.4,5.4,0,0,1,.548-.382l.127.153c-.126.158-.224.3-.242.331a15.834,15.834,0,0,0-1.886,4.624l-.089.293a4.329,4.329,0,0,0,4-4.178,3.128,3.128,0,0,0-1.348-2.758,5.786,5.786,0,0,0-3.241-.809h-.117a8.877,8.877,0,0,0-3.147.574c-2.113.772-4.371,2.634-4.371,5.542,0,1.3.569,2.687,2.167,2.687a2,2,0,0,0,1.494-.595,2.3,2.3,0,0,0,.571-1.724.414.414,0,0,1,.111-.3.558.558,0,0,1,.424-.159.518.518,0,0,1,.392.141.468.468,0,0,1,.118.318c0,1.547-1.24,2.586-3.085,2.586a3.29,3.29,0,0,1-2.893-1.287,3.275,3.275,0,0,1-.523-1.86,4.847,4.847,0,0,1,.523-2.191c1.229-2.507,4.588-4.191,8.36-4.191a9.042,9.042,0,0,1,4.493,1.006,3.454,3.454,0,0,1,1.893,3.07,3.641,3.641,0,0,1-1.386,2.829,7.667,7.667,0,0,1-2.9,1.464,9.6,9.6,0,0,1-1.695.357,11.555,11.555,0,0,1-2.868,5.132A7.31,7.31,0,0,1-2330.367-1485.7Zm52.255-1.911h0a1.207,1.207,0,0,1-1.287-1.338,3.205,3.205,0,0,1,.177-.968,3.348,3.348,0,0,1-2.28,1.516.79.79,0,0,1-.867-.853,2.965,2.965,0,0,1,.268-1.057c.158-.378.378-.843.726-1.567.064-.135.129-.271.193-.4l.008-.017a5,5,0,0,0,.525-1.3v-.038a.213.213,0,0,0-.21-.192h-.007c-.615,0-1.3.853-2.052,2.535l-1.237,2.8h-1.542l.471-1.07a2.639,2.639,0,0,1-1.874,1.21c-.523,0-.778-.292-.778-.892a2.347,2.347,0,0,1,.065-.522h-.014a3.155,3.155,0,0,1-2.091,1.414.86.86,0,0,1-.93-.943,2.852,2.852,0,0,1,.268-1.031c.2-.461.473-1.044.828-1.784l.242-.522a1.348,1.348,0,0,1-.645.165h-.018l-.061,0a.958.958,0,0,1-.435-.1,5.4,5.4,0,0,1-.5,1.72,3.628,3.628,0,0,1-3.225,2.509,1.522,1.522,0,0,1-1.695-1.5v-.216c-.789,1.038-1.455,1.682-2.333,1.682-.591,0-.93-.307-.93-.842a2.711,2.711,0,0,1,.23-.892l1.376-2.93a1.387,1.387,0,0,0,.141-.51c0-.167-.067-.242-.217-.242-.556,0-1.228.771-1.8,2.064l-1.427,3.236h-1.568l2.012-4.65a1.369,1.369,0,0,0,.128-.446v-.038a.186.186,0,0,0-.185-.167h-.019c-.436,0-1.267.809-1.848,2.115l-1.4,3.172h-1.53l.472-1.07c-.692.844-1.193,1.172-1.784,1.172a.832.832,0,0,1-.854-.918,3.1,3.1,0,0,1,.026-.357,2.984,2.984,0,0,1-1.963,1.274,1.127,1.127,0,0,1-.837-.3,1.2,1.2,0,0,1-.3-.9,5.483,5.483,0,0,1,1.262-2.969,2.013,2.013,0,0,1-.994.357c-.362,0-.561-.176-.561-.5a1.225,1.225,0,0,1,.152-.492.66.66,0,0,0,.077-.209.038.038,0,0,0,0-.012.065.065,0,0,0-.063-.053h-.012c-.157,0-.7.564-1.186,1.643l-1.466,3.325h-1.491l.472-1.083a2.811,2.811,0,0,1-1.861,1.184c-.558,0-.828-.287-.828-.879a2.652,2.652,0,0,1,.051-.306,2.71,2.71,0,0,1-1.937,1.184,1.126,1.126,0,0,1-.836-.3,1.205,1.205,0,0,1-.3-.9,5.747,5.747,0,0,1,1.364-3.1,4.719,4.719,0,0,1,3.517-1.936,2.554,2.554,0,0,1,1.582.31.124.124,0,0,1,.011.124l-1.568,3.567a3.868,3.868,0,0,0-.4,1.134c0,.141.066.216.192.216.512,0,1.448-1.331,2-2.574l1.185-2.675h1.376l-.408.981a2.693,2.693,0,0,1,1.708-1.1c.271,0,.408.12.408.357a2.059,2.059,0,0,1-.336.878,1.254,1.254,0,0,0-.187.421.143.143,0,0,0,0,.026.117.117,0,0,0,.113.091l.024,0a2.483,2.483,0,0,0,1.1-.65,4.444,4.444,0,0,1,2.727-1.108,2.557,2.557,0,0,1,1.583.31.125.125,0,0,1,.011.124l-1.568,3.554-.037.087a3.971,3.971,0,0,0-.333,1c0,.179.1.217.191.217.531,0,1.439-1.3,1.976-2.51l1.185-2.676h1.4l-.408.994a2.75,2.75,0,0,1,1.975-1.108.689.689,0,0,1,.777.777,1.439,1.439,0,0,1-.026.331,3.075,3.075,0,0,1,2.142-1.108.773.773,0,0,1,.841.79,3.927,3.927,0,0,1-.439,1.451l-.033.078-1.006,2.14-.027.066,0,0h0a2.093,2.093,0,0,0-.176.554c0,.142.066.217.191.217.4,0,.935-.54,1.581-1.606a8.539,8.539,0,0,1,.917-2.025,3.328,3.328,0,0,1,2.778-1.669,1.516,1.516,0,0,1,1.632,1.5.514.514,0,0,0,.5.229c.482,0,.893-.326,1.223-.968l.306-.662h1.542l-1.338,2.918-.65,1.426a2.145,2.145,0,0,0-.2.637v.051a.2.2,0,0,0,.2.18h.019c.63,0,1.606-1.52,1.975-2.37l1.237-2.84h1.555l-1.275,2.918c-.006.014-.7,1.645-.752,1.757a1.09,1.09,0,0,0-.089.331c0,.137.058.2.178.2.611,0,1.594-1.642,2.027-2.51l1.173-2.675h1.44l-.383.917a2.753,2.753,0,0,1,1.925-1.031.861.861,0,0,1,.943.892,6.68,6.68,0,0,1-.771,2.037l-.057.116c-.209.432-.509,1.054-.688,1.477a1.733,1.733,0,0,0-.179.6c0,.118.069.178.2.178.59,0,1.584-1.4,2.2-2.752l.893-1.974h-.74l.218-.459h.713l.6-1.35.343-.8h1.53l-.943,2.153h.994l-.2.459h-1.006c-.028.067-.106.245-.206.47l-.01.023c-.137.31-.325.734-.51,1.163-.4.908-.817,1.847-.828,1.859a5.242,5.242,0,0,0-.484,1.695c0,.38.176.573.523.573a1.307,1.307,0,0,0,.79-.306,5.683,5.683,0,0,0,1.2-1.325l.268.255a6.374,6.374,0,0,1-1.453,1.579A2.378,2.378,0,0,1-2278.112-1487.606Zm-14.134-6.5c-.3,0-.561.211-.969.777a9.691,9.691,0,0,0-1.568,3.72.777.777,0,0,0,.105.607.385.385,0,0,0,.3.119c.3,0,.594-.2.892-.623a10.06,10.06,0,0,0,1.618-4.026.639.639,0,0,0-.122-.475A.344.344,0,0,0-2292.246-1494.1Zm-13.485-.013h0a2.7,2.7,0,0,0-2.026,1.287,7.014,7.014,0,0,0-1.415,3.159c.011.247.129.357.382.357.6,0,1.338-.937,2.09-2.638Zm-9.521,0h0a2.7,2.7,0,0,0-2.026,1.287,7.009,7.009,0,0,0-1.415,3.159c0,.247.114.357.37.357.582,0,1.367-.986,2.1-2.638Zm45.183,4.2h-1.662l1.4-3.24h-3.532l.589-1.359h3.531l1.4-3.24h1.662l-1.4,3.24h3.531l-.588,1.359h-3.531l-1.4,3.239Z" transform="translate(2334 1501.695)" fill="#fff"/>
</svg>
