<svg xmlns="http://www.w3.org/2000/svg" width="92.308" height="16" viewBox="0 0 92.308 16">
  <path id="label_hbomax" d="M-2573.693-2034c0-5.229,3.215-8,7.216-7.983a7.125,7.125,0,0,1,4.369,1.383,1.436,1.436,0,0,1,1.4-1.137h1.353a.235.235,0,0,1,.232.23v15.2a.243.243,0,0,1-.246.246h-1.354a1.426,1.426,0,0,1-1.43-1.308,7.127,7.127,0,0,1-4.34,1.369C-2570.461-2026-2573.693-2028.77-2573.693-2034Zm2.894,0c0,3.279,1.938,5.016,4.306,5.016,2.386,0,4.308-1.737,4.308-5.016s-1.922-5.015-4.308-5.015S-2570.8-2037.277-2570.8-2034Zm-41.492,3.492a4.708,4.708,0,0,1-4.694,4.417h-6.769v-15.663h7.263a4.569,4.569,0,0,1,4.184,4.261,7.854,7.854,0,0,1,7.186-4.507,7.877,7.877,0,0,1,7.907,7.954,8,8,0,0,1-7.907,8.03A7.9,7.9,0,0,1-2612.292-2030.509Zm-7.4.785h2.154a1.25,1.25,0,0,0,1.139-1.338,1.251,1.251,0,0,0-1.139-1.308h-2.154Zm10.6-4.322a3.987,3.987,0,0,0,3.984,4,3.981,3.981,0,0,0,3.97-3.937,3.971,3.971,0,0,0-3.954-4.031h-.026A3.968,3.968,0,0,0-2609.092-2034.046Zm-5.585,0a3.235,3.235,0,0,1,1.647,1.2,6.28,6.28,0,0,1,0-2.154A3.437,3.437,0,0,1-2614.677-2034.046Zm-5.016-1.584h2.154a1.251,1.251,0,0,0,1.139-1.308,1.25,1.25,0,0,0-1.139-1.308h-2.154Zm43.616,9.569a1.444,1.444,0,0,1-1.446-1.446v-8.648a2.81,2.81,0,0,0-3.017-2.862,2.816,2.816,0,0,0-3.014,2.862v9.848a.243.243,0,0,1-.246.246h-1.355a1.445,1.445,0,0,1-1.446-1.446v-8.648a2.81,2.81,0,0,0-3.016-2.862,2.815,2.815,0,0,0-3.014,2.862v9.848a.243.243,0,0,1-.246.246h-1.354a1.445,1.445,0,0,1-1.446-1.446v-8.678c.092-3.8,2.768-5.815,6.061-5.815a6.132,6.132,0,0,1,4.554,1.784,6.077,6.077,0,0,1,4.54-1.784c3.292,0,5.969,2.016,6.044,5.8,0,.014.016.031,0,.045v9.848a.242.242,0,0,1-.246.246Zm29.891-.016a1.928,1.928,0,0,1-1.584-.846l-2.553-3.785a.834.834,0,0,0-1.385,0l-2.555,3.785a1.929,1.929,0,0,1-1.584.846h-2.308a.177.177,0,0,1-.153-.277l4.554-6.738a1.467,1.467,0,0,0,0-1.617l-4.554-6.752a.18.18,0,0,1,.153-.277h2.308a1.924,1.924,0,0,1,1.584.846l2.555,3.783a.834.834,0,0,0,1.385,0l2.553-3.783a1.923,1.923,0,0,1,1.584-.846h2.309a.168.168,0,0,1,.155.26l-4.554,6.754a1.464,1.464,0,0,0,0,1.615l4.554,6.754a.182.182,0,0,1-.155.277Zm-82.706,0v-6.077h-2.754v6.063H-2636v-15.646h4.354v5.845h2.754v-5.845h4.261v15.66Zm20.629-7.969a3.121,3.121,0,0,1,3.141-3.124,3.135,3.135,0,0,1,3.122,3.124,3.147,3.147,0,0,1-3.122,3.138A3.133,3.133,0,0,1-2608.263-2034.046Z" transform="translate(2636 2042)" fill="#fff"/>
</svg>
