<svg xmlns="http://www.w3.org/2000/svg" width="59.203" height="16" viewBox="0 0 59.203 16">
  <path id="label_netflix" d="M8.141,14.969c-.891.156-1.8.2-2.734.328L2.547,6.922v8.734C1.656,15.75.844,15.875,0,16V0H2.375l3.25,9.078V0H8.141V14.969Zm4.922-9.109c.969,0,2.453-.047,3.344-.047v2.5c-1.109,0-2.406,0-3.344.047v3.719c1.469-.094,2.938-.219,4.422-.266v2.406l-6.922.547V0h6.922V2.5H13.063V5.859ZM26.781,2.5H24.187V14c-.844,0-1.688,0-2.5.031V2.5H19.094V0h7.687V2.5Zm4.062,3.187h3.422v2.5H30.844v5.672H28.39V0h6.985V2.5H30.844V5.688Zm8.594,5.984c1.422.031,2.859.141,4.25.219v2.469c-2.234-.141-4.469-.281-6.75-.328V0h2.5V11.672ZM45.8,14.531c.8.047,1.641.094,2.453.187V0H45.8ZM59.2,0,56.031,7.609,59.2,16c-.938-.125-1.875-.3-2.813-.453l-1.8-4.625-1.828,4.25c-.906-.156-1.781-.2-2.687-.328L53.3,7.516,50.391,0h2.687l1.641,4.2L56.469,0H59.2Z" transform="translate(0 0)" fill="#fff"/>
</svg>
