<svg xmlns="http://www.w3.org/2000/svg" width="101.65" height="25" viewBox="0 0 101.65 25">
  <g id="ap_series" transform="translate(-131 -289)">
    <rect id="form" width="101.65" height="25" rx="4" transform="translate(131 289)" fill="#101922"/>
    <text id="SERIES" transform="translate(178.649 306)" fill="#4f44fb" font-size="12" font-family="Poppins-Medium, Poppins" font-weight="500" letter-spacing="0.072em"><tspan x="0" y="0">SERIES</tspan></text>
    <path id="logo_apple" d="M6.625,1.925A2.708,2.708,0,0,0,7.243,0,2.646,2.646,0,0,0,5.481.92a2.543,2.543,0,0,0-.632,1.847,2.2,2.2,0,0,0,1.776-.843m.576.97c-.983-.057-1.811.562-2.282.562S3.732,2.926,2.96,2.94A2.891,2.891,0,0,0,.5,4.447c-1.053,1.826-.281,4.545.744,6.031.5.706,1.1,1.548,1.889,1.521s1.039-.491,1.945-.491,1.173.491,1.959.474,1.334-.708,1.826-1.474a6.542,6.542,0,0,0,.821-1.7A2.678,2.678,0,0,1,8.093,6.373,2.738,2.738,0,0,1,9.377,4.087,2.8,2.8,0,0,0,7.2,2.893m6.27-1.415v2h1.6V4.806h-1.6V9.549c0,.708.316,1.069,1.018,1.069a5.253,5.253,0,0,0,.576-.042v1.334a5.493,5.493,0,0,1-.948.07c-1.657,0-2.3-.644-2.3-2.258V4.838H10.564V3.511h1.222V1.479Zm7.2,10.429H18.912l-2.949-8.4h1.748l2.071,6.746h.042L21.9,3.511H23.61Zm7.709,0H26.86V8.466H23.6V6.951h3.251V3.511H28.37v3.44h3.258V8.466H28.377Z" transform="translate(143.049 295.5)" fill="#fff"/>
  </g>
</svg>
