<svg xmlns="http://www.w3.org/2000/svg" width="178.6" height="25" viewBox="0 0 178.6 25">
  <g id="di_docu" transform="translate(-131 -289)">
    <rect id="form" width="178.6" height="25" rx="4" transform="translate(131 289)" fill="#101922"/>
    <path id="logo_designer" d="M-2637.824-1762.2l.056.008a4.386,4.386,0,0,1,1.149.274,1.187,1.187,0,0,1,.621.584,1.806,1.806,0,0,1,.038,1.531,1.814,1.814,0,0,1-.836.8,3.1,3.1,0,0,1-1.043.283,3.712,3.712,0,0,1-1.972-.352,2.362,2.362,0,0,1-1-.85.846.846,0,0,1,.039-.909,1.771,1.771,0,0,1,1.472-.5,6.1,6.1,0,0,1,1.427.261,2.754,2.754,0,0,1,.534.246.177.177,0,0,1,.054.174c-.083.253-.7.386-.874.412-.474.073-.72-.107-1.26-.32a1.851,1.851,0,0,0-.449-.123c-.245-.023-.54.045-.587.313-.023.138.139.266.262.321a1.973,1.973,0,0,0,.809.173,4.236,4.236,0,0,0,2.475-.612.385.385,0,0,0,.188-.29c0-.25-.436-.4-.436-.4a7.131,7.131,0,0,0-1.761-.324c-.463-.04-1.191-.1-1.366-.126a2.064,2.064,0,0,1-.531-.132.661.661,0,0,1-.355-.4,1.253,1.253,0,0,1,.2-.956,3.445,3.445,0,0,1,2.341-1.012,5.374,5.374,0,0,1,2.8.311c.118.063.178.122.154.248a.614.614,0,0,1-.444.457,4.9,4.9,0,0,1-.9.113,14.976,14.976,0,0,0-2.914.264.6.6,0,0,0-.226.095c-.137.149.255.192.339.209a.322.322,0,0,0,.056.01l1.941.229m-5.485-4.111s.15-.225.276-.4a7.113,7.113,0,0,1,.955-1.009c.1-.081.208-.174.208-.174s-.176.018-.276.038a2.1,2.1,0,0,0-.757.426c-.286.245-.6.643-.458,1,.021.05.053.117.053.117m1.59.426a3.017,3.017,0,0,0,1.269-.38c.386-.216.955-.638.9-1.134a.417.417,0,0,0-.256-.338.578.578,0,0,0-.482,0,1.449,1.449,0,0,0-.383.162,5.844,5.844,0,0,0-1.413,1.249c-.079.1-.158.22-.221.3-.04.049-.07.094-.066.106a2,2,0,0,0,.656.033m-1.15.845a1.965,1.965,0,0,0-.147.254.509.509,0,0,1-.111.129.231.231,0,0,1-.331-.009.806.806,0,0,1-.258-.57,1.748,1.748,0,0,0-.005-.273,1.782,1.782,0,0,0-.231-.393,1.544,1.544,0,0,1-.159-.573,1.915,1.915,0,0,1,.6-1.377,3.98,3.98,0,0,1,1.338-.916,2.625,2.625,0,0,1,1.719-.158,1.3,1.3,0,0,1,.533.36.4.4,0,0,0,.073.083.552.552,0,0,0,.134.03,1.343,1.343,0,0,1,.512.242.979.979,0,0,1,.36.576,1.583,1.583,0,0,1-.491,1.329,4.861,4.861,0,0,1-1.764,1.212,2.829,2.829,0,0,1-1.12.2c-.107-.009-.217-.037-.321-.044a1.462,1.462,0,0,1-.268-.069c-.026-.02-.059-.037-.065-.03m.617,1.066a.5.5,0,0,1,.082.024.713.713,0,0,1,.4.563,17.009,17.009,0,0,1,.22,2.332c.017.372.026.737.042,1.1a4.394,4.394,0,0,1-.027,1.016.477.477,0,0,1-.194.289.882.882,0,0,1-.521.05c-.354-.073-.47-.3-.52-.652a17.5,17.5,0,0,1,.009-3.172,6.892,6.892,0,0,1,.229-1.27c.041-.1.127-.313.279-.283m-10.788,1.392s-.528.037-.891.078a9.861,9.861,0,0,0-1.832.379c-.15.054-.456.182-.482.336a.517.517,0,0,0,.182.415c.064.075.426.423.528.508a9.136,9.136,0,0,0,1.924,1.169c.218.09.579.219.579.219s-.027-1.028-.022-2.041c0-.534.014-1.063.014-1.063m9.677.409a4.418,4.418,0,0,1-.053.867,4.019,4.019,0,0,1-.162.57,6.5,6.5,0,0,1-.293.587,4.859,4.859,0,0,1-.829,1.017,6.915,6.915,0,0,1-3.521,1.379,8.972,8.972,0,0,1-2.627-.076c-.3-.054-.743-.157-.743-.157s0,.178-.013.3a1.261,1.261,0,0,1-.074.256.4.4,0,0,1-.317.227.948.948,0,0,1-.542-.027.779.779,0,0,1-.423-.672c-.039-.238-.08-.652-.08-.652s-.206-.1-.378-.183a9.764,9.764,0,0,1-1.469-.9c-.122-.091-.644-.528-.76-.637a4.309,4.309,0,0,1-.836-1,.961.961,0,0,1-.091-.9,2.432,2.432,0,0,1,1.272-.987,10.6,10.6,0,0,1,1.759-.536c.2-.028.507-.083.526-.1a.122.122,0,0,0,.019-.017c.01-.014.026-.461.023-.625s.119-1.218.159-1.442a2.6,2.6,0,0,1,.206-.709.186.186,0,0,1,.257-.022c.482.3.629,1.34.665,1.87.021.323.032.808.032.808s.553-.016.894-.007a8.023,8.023,0,0,1,1.039.115,7.311,7.311,0,0,1,1.788.507,1.82,1.82,0,0,1,.906.917.933.933,0,0,1-.077.87,1.218,1.218,0,0,1-.939.617,1.545,1.545,0,0,1-.66-.149.115.115,0,0,1-.011-.161c.014-.017.21-.121.326-.182a.74.74,0,0,0,.151-.107c.1-.084.183-.178.173-.287-.013-.142-.164-.229-.307-.286a11.194,11.194,0,0,0-2.658-.526c-.253-.015-.614-.028-.614-.028l.076,3.575s.3.057.533.095c.135.02.706.072.857.076a7.9,7.9,0,0,0,3.505-.573,3.658,3.658,0,0,0,1.216-.861,2.5,2.5,0,0,0,.59-1.856,4.838,4.838,0,0,0-1.03-2.219,12.18,12.18,0,0,0-4.781-3.357,15.236,15.236,0,0,0-5.317-1.2,8.822,8.822,0,0,0-2.043.152c-.075.021-.151.046-.221.062a.614.614,0,0,0-.166.069.249.249,0,0,0-.026.025s.032.018.063.031c.056.024.29.039.411.061a.4.4,0,0,1,.266.157.157.157,0,0,1,0,.2c-.119.145-.567.121-.765.089s-.461-.1-.508-.274a.837.837,0,0,1,.153-.607,1.465,1.465,0,0,1,.983-.7,10,10,0,0,1,2.073-.326,12.1,12.1,0,0,1,4.028.6,19.232,19.232,0,0,1,2.5.974,19.663,19.663,0,0,1,1.823,1.026c.147.1,1.008.729,1.141.841.279.228.644.556.908.818a8.441,8.441,0,0,1,1.455,1.9c.074.148.132.293.228.464a4.091,4.091,0,0,1,.2.51c.023.1.057.247.062.253a3.586,3.586,0,0,1,.067.471m17.367-.791a20.909,20.909,0,0,1-2.348.232l-.215.672a9.532,9.532,0,0,1,1.469-.008s.2-.023.224.227a3.887,3.887,0,0,1-.02.485s-.013.152-.228.19c-.233.039-1.833.1-1.833.1l-.259.876s-.1.2.119.145a14.918,14.918,0,0,1,2.094-.323.6.6,0,0,1,.418.654,4.086,4.086,0,0,1-2.781,1.344s-.535.035-.987-.688c-.422-.688.159-1.992.159-1.992s-.266-.608-.073-.815a.787.787,0,0,1,.45-.128l.41-.848a.951.951,0,0,1-.745-.311c-.259-.326-.281-.476-.082-.566a13.915,13.915,0,0,1,3.494-.415s.465-.046.868.761c0,0,.2.326-.137.4m-5.033,3.261a.89.89,0,0,1-1.187.566c-.555-.268-1.44-2.079-1.44-2.079s-.336-.675-.4-.658c0,0-.072-.132-.117.606s.009,2.168-.284,2.393a.519.519,0,0,1-.788-.128,3.943,3.943,0,0,1-.138-1.965,5.966,5.966,0,0,1,.677-2.607.416.416,0,0,1,.682,0,7.862,7.862,0,0,1,1.143,1.539l.125.213a9.74,9.74,0,0,0,.714,1.082s.053.05.1.014c.068-.019.041-.367.041-.367a20.874,20.874,0,0,0-.724-3.184.938.938,0,0,1-.029-.483c.06-.236.3-.125.3-.125a3.162,3.162,0,0,1,1.358,1.948,5.38,5.38,0,0,1-.03,3.239m9.84-.892c-.416.726-1.591,2.247-3.152,1.888a16.234,16.234,0,0,0-1.2,4.408s-.054.368-.36.24a1.723,1.723,0,0,1-.9-1.306,9.145,9.145,0,0,1,1.132-4.236,2.434,2.434,0,0,1-.267-1.762,5.175,5.175,0,0,1,1.707-2.836s.18-.155.284-.107.061.534-.03.77-.761,1.389-.761,1.389a2.585,2.585,0,0,0-.3,1.4c.786-1.208,2.572-3.644,3.679-2.876a1.8,1.8,0,0,1,.543,1.468,3.327,3.327,0,0,1-.376,1.566m-.323-1.913s-.062-.48-.531.049a11.427,11.427,0,0,0-1.719,2.419,2.853,2.853,0,0,0,1.388-.573,2.308,2.308,0,0,0,.862-1.9m8.925-.109h-2.862a22.486,22.486,0,0,0-.359-2.9.213.213,0,0,0-.209-.174h-.66a.193.193,0,0,0-.149.071.2.2,0,0,0-.041.161,20.938,20.938,0,0,1,.365,2.839h-2.753a.232.232,0,0,0-.233.232v.595a.233.233,0,0,0,.233.233h2.792c0,.147,0,.278,0,.4a20.9,20.9,0,0,1-.123,2.361.213.213,0,0,0,.055.168.213.213,0,0,0,.159.072h.612a.231.231,0,0,0,.23-.209,21.992,21.992,0,0,0,.119-2.392c0-.123,0-.255,0-.4h2.822a.233.233,0,0,0,.232-.233v-.6a.233.233,0,0,0-.232-.233" transform="translate(2802.002 2064.036)" fill="#fff"/>
    <text id="DOCUMENTALES" transform="translate(193.6 306)" fill="#4f44fb" font-size="12" font-family="Poppins-Medium, Poppins" font-weight="500" letter-spacing="0.072em"><tspan x="0" y="0">DOCUMENTALES</tspan></text>
  </g>
</svg>
