<svg xmlns="http://www.w3.org/2000/svg" width="141.15" height="25" viewBox="0 0 141.15 25">
  <g id="hb_peli" transform="translate(-131 -289)">
    <rect id="form" width="141.15" height="25" rx="4" transform="translate(131 289)" fill="#101922"/>
    <text id="PELICULAS" transform="translate(193.151 306)" fill="#4f44fb" font-size="12" font-family="Poppins-Medium, Poppins" font-weight="500" letter-spacing="0.072em"><tspan x="0" y="0">PELICULAS</tspan></text>
    <path id="logo_hbo" d="M-2604.846-2038c0-2.615,1.608-4,3.608-3.992a3.56,3.56,0,0,1,2.185.692.718.718,0,0,1,.7-.569h.677a.118.118,0,0,1,.115.115v7.6a.121.121,0,0,1-.123.123h-.677a.714.714,0,0,1-.715-.654,3.559,3.559,0,0,1-2.169.685C-2603.231-2034-2604.846-2035.385-2604.846-2038Zm1.446,0a2.207,2.207,0,0,0,2.154,2.508,2.2,2.2,0,0,0,2.154-2.508,2.2,2.2,0,0,0-2.154-2.508A2.2,2.2,0,0,0-2603.4-2038Zm-20.746,1.746a2.353,2.353,0,0,1-2.346,2.208h-3.385v-7.831h3.631a2.285,2.285,0,0,1,2.092,2.131,3.926,3.926,0,0,1,3.592-2.254,3.938,3.938,0,0,1,3.954,3.977,4,4,0,0,1-3.954,4.015A3.949,3.949,0,0,1-2624.146-2036.254Zm-3.7.392h1.077a.625.625,0,0,0,.569-.669.625.625,0,0,0-.569-.654h-1.077Zm5.3-2.161a1.994,1.994,0,0,0,1.992,2,1.992,1.992,0,0,0,1.985-1.969,1.985,1.985,0,0,0-1.977-2.015h-.014A1.983,1.983,0,0,0-2622.546-2038.023Zm-2.792,0a1.613,1.613,0,0,1,.823.6,3.165,3.165,0,0,1,0-1.077A1.716,1.716,0,0,1-2625.339-2038.023Zm-2.508-.792h1.077a.625.625,0,0,0,.569-.654.625.625,0,0,0-.569-.654h-1.077Zm21.808,4.785a.722.722,0,0,1-.723-.723v-4.323a1.4,1.4,0,0,0-1.508-1.431,1.408,1.408,0,0,0-1.508,1.431v4.923a.121.121,0,0,1-.123.123h-.677a.722.722,0,0,1-.723-.723v-4.323a1.4,1.4,0,0,0-1.508-1.431,1.408,1.408,0,0,0-1.508,1.431v4.923a.122.122,0,0,1-.123.123h-.677a.722.722,0,0,1-.723-.723v-4.338a2.836,2.836,0,0,1,3.031-2.908,3.066,3.066,0,0,1,2.277.892,3.036,3.036,0,0,1,2.269-.892,2.824,2.824,0,0,1,3.023,2.9c0,.008.008.015,0,.023v4.923a.121.121,0,0,1-.123.123Zm14.946-.008a.964.964,0,0,1-.792-.423l-1.277-1.892a.417.417,0,0,0-.692,0l-1.277,1.892a.964.964,0,0,1-.792.423h-1.154a.088.088,0,0,1-.077-.138l2.277-3.369a.734.734,0,0,0,0-.808l-2.277-3.377a.091.091,0,0,1,.077-.139h1.154a.964.964,0,0,1,.792.423l1.277,1.892a.417.417,0,0,0,.692,0l1.277-1.892a.964.964,0,0,1,.792-.423h1.154a.084.084,0,0,1,.077.131l-2.277,3.377a.733.733,0,0,0,0,.808l2.277,3.377a.091.091,0,0,1-.077.138Zm-41.354,0v-3.038h-1.377v3.031H-2636v-7.823h2.177v2.923h1.377v-2.923h2.131v7.831Zm10.315-3.984a1.559,1.559,0,0,1,1.569-1.562,1.568,1.568,0,0,1,1.562,1.562,1.574,1.574,0,0,1-1.562,1.569A1.566,1.566,0,0,1-2622.131-2038.023Z" transform="translate(2779 2339.5)" fill="#fff"/>
  </g>
</svg>
