<svg xmlns="http://www.w3.org/2000/svg" width="162.301" height="25" viewBox="0 0 162.301 25">
  <g id="hu_docu" transform="translate(-131 -289)">
    <rect id="form" width="162.3" height="25" rx="4" transform="translate(131 289)" fill="#101922"/>
    <text id="DOCUMENTALES" transform="translate(177.299 306)" fill="#4f44fb" font-size="12" font-family="Poppins-Medium, Poppins" font-weight="500" letter-spacing="0.072em"><tspan x="0" y="0">DOCUMENTALES</tspan></text>
    <path id="logo_hulu" d="M6.742,3.738A2.319,2.319,0,0,1,7.5,5.65V10H5.1V5.97a.676.676,0,0,0-.659-.659H3.051a.6.6,0,0,0-.452.2.648.648,0,0,0-.188.461V10H0V0H2.411V3.258c.038-.012.125-.038.264-.075a2.142,2.142,0,0,1,.546-.056H4.765A3.039,3.039,0,0,1,6.742,3.738Zm7.589-.612h2.411V7.345a2.792,2.792,0,0,1-.65,1.921A2.232,2.232,0,0,1,14.331,10H11.959a2.811,2.811,0,0,1-1.987-.687,2.545,2.545,0,0,1-.744-1.968V3.126h2.411v4.03a.643.643,0,0,0,.64.64h1.394a.648.648,0,0,0,.461-.188.6.6,0,0,0,.2-.452ZM18.569,0h2.411V10H18.569ZM30.32,3.126V7.345a2.792,2.792,0,0,1-.65,1.921A2.232,2.232,0,0,1,27.91,10H25.556a2.838,2.838,0,0,1-2.006-.687,2.545,2.545,0,0,1-.744-1.968V3.126h2.411v4.03a.643.643,0,0,0,.64.64h1.412a.643.643,0,0,0,.64-.64V3.126Z" transform="translate(142.999 296.5)" fill="#fff"/>
  </g>
</svg>
