<svg xmlns="http://www.w3.org/2000/svg" width="169" height="25" viewBox="0 0 169 25">
  <g id="ne_docu" transform="translate(-131 -289)">
    <rect id="form" width="169" height="25" rx="4" transform="translate(131 289)" fill="#101922"/>
    <text id="DOCUMENTALES" transform="translate(184.001 306)" fill="#4f44fb" font-size="12" font-family="Poppins-Medium, Poppins" font-weight="500" letter-spacing="0.072em"><tspan x="0" y="0">DOCUMENTALES</tspan></text>
    <path id="logo_netflix" d="M5.088,9.355c-.557.1-1.123.127-1.709.205L1.592,4.326V9.785C1.035,9.844.527,9.922,0,10V0H1.484L3.516,5.674V0H5.088V9.355ZM8.164,3.662c.606,0,1.533-.029,2.09-.029V5.2c-.693,0-1.5,0-2.09.029V7.549c.918-.059,1.836-.137,2.764-.166v1.5L6.6,9.228V0h4.326V1.562H8.164v2.1Zm8.574-2.1H15.117V8.75c-.527,0-1.055,0-1.562.019V1.563H11.934V0h4.8V1.563Zm2.539,1.992h2.139V5.117H19.277V8.662H17.744V0h4.365V1.562H19.277V3.555Zm5.371,3.74c.889.019,1.787.088,2.656.137V8.975c-1.4-.088-2.793-.176-4.219-.205V0h1.562V7.295Zm3.975,1.787c.5.029,1.025.059,1.533.117V0H28.623ZM37,0,35.02,4.756,37,10c-.586-.078-1.172-.186-1.758-.283L34.121,6.826,32.979,9.482c-.567-.1-1.113-.127-1.68-.205L33.311,4.7,31.494,0h1.68L34.2,2.627,35.293,0H37Z" transform="translate(143 296.5)" fill="#fff"/>
  </g>
</svg>
