<svg xmlns="http://www.w3.org/2000/svg" width="177.15" height="25" viewBox="0 0 177.15 25">
  <g id="pa_docu" transform="translate(-131 -289)">
    <rect id="form" width="177.15" height="25" rx="4" transform="translate(131 289)" fill="#101922"/>
    <text id="DOCUMENTALES" transform="translate(192.151 306)" fill="#4f44fb" font-size="12" font-family="Poppins-Medium, Poppins" font-weight="500" letter-spacing="0.072em"><tspan x="0" y="0">DOCUMENTALES</tspan></text>
    <path id="logo_paramount" d="M-2331.729-1491.7c-.137,0-.266-.008-.39-.016-1.218-.118-1.9-.742-1.88-1.712.006-.272.089-.6.447-.6h.044a.346.346,0,0,1,.243.109.345.345,0,0,1,.095.25,1.312,1.312,0,0,1-.021.184,1.581,1.581,0,0,0-.026.238,1.219,1.219,0,0,0,1.108,1.282,2.679,2.679,0,0,0,.358.024,2.83,2.83,0,0,0,2.338-1.245,13.244,13.244,0,0,0,1.479-2.78,9.526,9.526,0,0,1,2.356-3.746,3.364,3.364,0,0,1,.342-.239l.08.1c-.08.1-.141.19-.152.207a9.9,9.9,0,0,0-1.179,2.89l-.056.183a2.706,2.706,0,0,0,2.5-2.611,1.956,1.956,0,0,0-.842-1.724,3.616,3.616,0,0,0-2.025-.506h-.073a5.551,5.551,0,0,0-1.967.359,3.826,3.826,0,0,0-2.732,3.464c0,.812.355,1.68,1.354,1.68a1.251,1.251,0,0,0,.934-.372,1.434,1.434,0,0,0,.356-1.077.259.259,0,0,1,.07-.187.348.348,0,0,1,.265-.1.324.324,0,0,1,.245.088.294.294,0,0,1,.073.2c0,.967-.774,1.616-1.928,1.616a2.057,2.057,0,0,1-1.808-.8,2.051,2.051,0,0,1-.327-1.162,3.033,3.033,0,0,1,.327-1.37c.768-1.567,2.868-2.619,5.225-2.619a5.651,5.651,0,0,1,2.808.629,2.16,2.16,0,0,1,1.183,1.919,2.275,2.275,0,0,1-.866,1.768,4.793,4.793,0,0,1-1.81.915,6.02,6.02,0,0,1-1.06.223,7.219,7.219,0,0,1-1.792,3.208A4.568,4.568,0,0,1-2331.729-1491.7Zm32.659-1.194h0a.754.754,0,0,1-.8-.836,2,2,0,0,1,.11-.605,2.091,2.091,0,0,1-1.425.948.494.494,0,0,1-.542-.533,1.863,1.863,0,0,1,.167-.661c.1-.236.236-.527.454-.979l.121-.252.005-.01a3.118,3.118,0,0,0,.328-.812v-.024a.133.133,0,0,0-.132-.12h0c-.384,0-.815.533-1.283,1.585l-.772,1.751h-.964l.295-.669a1.65,1.65,0,0,1-1.171.757c-.327,0-.486-.182-.486-.558a1.475,1.475,0,0,1,.041-.326h-.008a1.972,1.972,0,0,1-1.307.884.538.538,0,0,1-.581-.589,1.775,1.775,0,0,1,.167-.645c.126-.288.3-.652.518-1.115l.151-.326a.843.843,0,0,1-.4.1h-.049a.6.6,0,0,1-.272-.065,3.376,3.376,0,0,1-.312,1.075,2.267,2.267,0,0,1-2.015,1.568.951.951,0,0,1-1.059-.939v-.135c-.493.649-.909,1.051-1.458,1.051-.37,0-.582-.192-.582-.526a1.7,1.7,0,0,1,.144-.557l.86-1.831a.868.868,0,0,0,.088-.319c0-.1-.042-.151-.136-.151-.348,0-.767.482-1.123,1.29l-.892,2.023h-.98l1.257-2.906a.856.856,0,0,0,.08-.279v-.024a.117.117,0,0,0-.116-.1h-.012c-.273,0-.792.505-1.155,1.322l-.876,1.983h-.956l.295-.669c-.432.527-.745.733-1.115.733a.52.52,0,0,1-.534-.574,1.817,1.817,0,0,1,.016-.223,1.866,1.866,0,0,1-1.227.8.7.7,0,0,1-.523-.187.754.754,0,0,1-.186-.561,3.427,3.427,0,0,1,.789-1.855,1.258,1.258,0,0,1-.622.223c-.226,0-.351-.11-.351-.31a.762.762,0,0,1,.1-.307.407.407,0,0,0,.048-.131.036.036,0,0,0,0-.007.04.04,0,0,0-.04-.033h-.007c-.1,0-.439.353-.742,1.027l-.916,2.078h-.932l.295-.677a1.756,1.756,0,0,1-1.163.74c-.348,0-.518-.18-.518-.549a1.582,1.582,0,0,1,.032-.191,1.694,1.694,0,0,1-1.211.74.7.7,0,0,1-.522-.187.752.752,0,0,1-.186-.562,3.6,3.6,0,0,1,.853-1.935,2.95,2.95,0,0,1,2.2-1.21,1.6,1.6,0,0,1,.989.193.079.079,0,0,1,.007.077l-.98,2.229a2.415,2.415,0,0,0-.247.709c0,.089.041.135.12.135.32,0,.905-.832,1.251-1.609l.74-1.672h.86l-.254.613a1.683,1.683,0,0,1,1.067-.685c.169,0,.255.075.255.223a1.29,1.29,0,0,1-.209.549.785.785,0,0,0-.117.263.057.057,0,0,0,0,.016.072.072,0,0,0,.07.057h.015a1.551,1.551,0,0,0,.685-.406,2.778,2.778,0,0,1,1.705-.693,1.6,1.6,0,0,1,.989.193.077.077,0,0,1,.007.077l-.98,2.221-.023.054a2.473,2.473,0,0,0-.208.623c0,.112.064.135.119.135.332,0,.9-.814,1.235-1.569l.741-1.672h.877l-.255.621a1.719,1.719,0,0,1,1.234-.693.431.431,0,0,1,.486.486.914.914,0,0,1-.016.207,1.921,1.921,0,0,1,1.339-.693.483.483,0,0,1,.525.494,2.453,2.453,0,0,1-.275.907l-.02.048-.629,1.338-.017.041v0h0a1.291,1.291,0,0,0-.11.346c0,.089.042.135.12.135.252,0,.584-.338.988-1a5.348,5.348,0,0,1,.573-1.266,2.081,2.081,0,0,1,1.736-1.043.947.947,0,0,1,1.02.94.321.321,0,0,0,.311.143c.3,0,.559-.2.765-.6l.191-.414h.964l-.836,1.824-.406.892a1.342,1.342,0,0,0-.127.4v.032a.123.123,0,0,0,.123.112h.012c.394,0,1-.95,1.234-1.481l.773-1.775h.972l-.8,1.824c0,.009-.439,1.028-.47,1.1a.691.691,0,0,0-.056.207c0,.086.037.128.111.128.382,0,1-1.026,1.267-1.569l.733-1.672h.9l-.239.573a1.72,1.72,0,0,1,1.2-.645.538.538,0,0,1,.59.557,4.17,4.17,0,0,1-.482,1.273l-.035.073c-.131.27-.318.659-.431.923a1.077,1.077,0,0,0-.111.375c0,.074.042.111.127.111.369,0,.99-.875,1.377-1.72l.558-1.234h-.462l.136-.287h.446l.375-.844.214-.5h.957l-.589,1.345h.621l-.127.287h-.629c-.018.042-.066.153-.129.294l-.007.014c-.085.194-.2.459-.319.727-.248.568-.51,1.154-.518,1.162a3.285,3.285,0,0,0-.3,1.059c0,.238.11.358.327.358a.817.817,0,0,0,.494-.191,3.553,3.553,0,0,0,.75-.828l.167.159a3.98,3.98,0,0,1-.908.987A1.485,1.485,0,0,1-2299.07-1492.889Zm-8.833-4.061c-.187,0-.351.132-.605.486a6.052,6.052,0,0,0-.98,2.325.485.485,0,0,0,.066.379.241.241,0,0,0,.189.074c.189,0,.371-.127.557-.39a6.283,6.283,0,0,0,1.012-2.516.4.4,0,0,0-.076-.3A.215.215,0,0,0-2307.9-1496.95Zm-8.428-.008h0a1.685,1.685,0,0,0-1.266.8,4.38,4.38,0,0,0-.884,1.975c.007.154.081.223.239.223.372,0,.836-.586,1.306-1.648Zm-5.95,0h0a1.684,1.684,0,0,0-1.266.8,4.374,4.374,0,0,0-.884,1.975c0,.154.071.223.23.223.364,0,.855-.616,1.314-1.648Zm28.239,2.627h-1.039l.877-2.025h-2.208l.368-.849h2.207l.877-2.025h1.039l-.877,2.025h2.207l-.368.849h-2.207l-.877,2.025Z" transform="translate(2478.101 1798.195)" fill="#fff"/>
  </g>
</svg>
