<svg xmlns="http://www.w3.org/2000/svg" width="134.15" height="25" viewBox="0 0 134.15 25">
  <g id="pr_peli" transform="translate(-131 -289)">
    <rect id="form" width="134.15" height="25" rx="4" transform="translate(131 289)" fill="#101922"/>
    <text id="PELICULAS" transform="translate(186.151 306)" fill="#4f44fb" font-size="12" font-family="Poppins-Medium, Poppins" font-weight="500" letter-spacing="0.072em"><tspan x="0" y="0">PELICULAS</tspan></text>
    <path id="logo_prime" d="M-2495.678-1724.951v-.02c-.268-.015-.536-.024-.8-.044a13.923,13.923,0,0,1-2.11-.322,14.29,14.29,0,0,1-6.326-3.294c-.17-.151-.331-.307-.5-.463a.373.373,0,0,1-.093-.132.18.18,0,0,1,.035-.195.172.172,0,0,1,.195-.044,1.018,1.018,0,0,1,.126.063,18.948,18.948,0,0,0,5.663,2.339,20.607,20.607,0,0,0,2.032.365,18.663,18.663,0,0,0,2.953.132,15.627,15.627,0,0,0,1.583-.132,19.128,19.128,0,0,0,3.616-.824,17.021,17.021,0,0,0,1.813-.711.407.407,0,0,1,.292-.039.3.3,0,0,1,.219.365.336.336,0,0,1-.024.063.539.539,0,0,1-.161.185,10.868,10.868,0,0,1-1.8,1.145,14.279,14.279,0,0,1-3.816,1.292,16.7,16.7,0,0,1-2.31.249v.02Zm8.752-.848a.528.528,0,0,1,.034-.146c.171-.458.336-.911.468-1.384a4.821,4.821,0,0,0,.166-.789,1.5,1.5,0,0,0,0-.292.38.38,0,0,0-.273-.355,1.89,1.89,0,0,0-.468-.088,7.675,7.675,0,0,0-1.34.059l-.589.073a.146.146,0,0,1-.156-.058.164.164,0,0,1,.015-.176.493.493,0,0,1,.146-.136,3.351,3.351,0,0,1,1.194-.517,5.812,5.812,0,0,1,1.009-.112,4.147,4.147,0,0,1,.95.112,1.616,1.616,0,0,1,.253.093.329.329,0,0,1,.2.268,2.03,2.03,0,0,1,.015.419,5.377,5.377,0,0,1-.75,2.354,3.266,3.266,0,0,1-.565.7.4.4,0,0,1-.156.1.176.176,0,0,1-.044.006C-2486.881-1725.676-2486.922-1725.722-2486.926-1725.8Zm-28.069-4.186c0-1.7,0-3.411,0-5.117a.339.339,0,0,1,.292-.1c.146,0,.3,0,.444,0a.193.193,0,0,1,.219.166c.015.049.024.1.039.146,0,.005.009.01.02.015a.4.4,0,0,0,.1-.073,1.722,1.722,0,0,1,1.457-.326,1.41,1.41,0,0,1,.975.833,2.218,2.218,0,0,1,.19.731,3.015,3.015,0,0,1-.107,1.213,1.8,1.8,0,0,1-.507.814,1.43,1.43,0,0,1-1.145.356,1.639,1.639,0,0,1-.848-.336c-.034.029-.02.068-.02.1v1.389c0,.3,0,.3-.307.3-.176,0-.352,0-.526,0h-.03A.258.258,0,0,1-2515-1729.985Zm1.2-4.356a.148.148,0,0,0-.1.151c0,.293,0,.585,0,.877v.882a.138.138,0,0,0,.083.136,1.337,1.337,0,0,0,.711.156.694.694,0,0,0,.448-.171.75.75,0,0,0,.224-.39,2.451,2.451,0,0,0,.059-.921,1.368,1.368,0,0,0-.126-.5.6.6,0,0,0-.463-.351,1.149,1.149,0,0,0-.229-.023A1.415,1.415,0,0,0-2513.8-1734.342Zm15.954,3.007a1.525,1.525,0,0,1-1.248-1.169,2.694,2.694,0,0,1,.01-1.521,1.662,1.662,0,0,1,1.5-1.247,2.182,2.182,0,0,1,.97.093,1.162,1.162,0,0,1,.73,1.462.907.907,0,0,1-.448.546,1.788,1.788,0,0,1-.609.2,3.251,3.251,0,0,1-1.106-.015,1.326,1.326,0,0,0-.136-.02.816.816,0,0,0,.658.877,2.419,2.419,0,0,0,.916-.01c.142-.029.278-.059.419-.093s.2.01.2.156c0,.122-.005.244,0,.361a.224.224,0,0,1-.166.239,2.961,2.961,0,0,1-.575.156,3.638,3.638,0,0,1-.568.048A2.516,2.516,0,0,1-2497.842-1731.335Zm-.229-2.739a1.32,1.32,0,0,0-.092.336c-.01.078-.01.078.063.088a3.839,3.839,0,0,0,.575.044.991.991,0,0,0,.317-.024.436.436,0,0,0,.37-.283.558.558,0,0,0,.015-.253.372.372,0,0,0-.224-.307.791.791,0,0,0-.258-.059l-.063,0A.717.717,0,0,0-2498.071-1734.073Zm15.687,2.719a1.5,1.5,0,0,1-1.116-1.043,2.7,2.7,0,0,1-.02-1.633,1.7,1.7,0,0,1,1.7-1.252,2.148,2.148,0,0,1,.726.093,1.13,1.13,0,0,1,.8.853,1.321,1.321,0,0,1,0,.536.906.906,0,0,1-.492.648,2.005,2.005,0,0,1-.818.209,3.853,3.853,0,0,1-.975-.059.152.152,0,0,0-.068-.01,2.064,2.064,0,0,0,.053.3.764.764,0,0,0,.644.584,2.465,2.465,0,0,0,1-.034c.107-.024.209-.049.317-.078.141-.034.2.015.2.156v.351a.217.217,0,0,1-.175.253,3.107,3.107,0,0,1-1.048.2l-.1,0A2.629,2.629,0,0,1-2482.384-1731.354Zm-.044-2.9a1.213,1.213,0,0,0-.195.531c-.01.044.01.063.054.068a4.672,4.672,0,0,0,.589.049,1.246,1.246,0,0,0,.3-.024.431.431,0,0,0,.39-.3.436.436,0,0,0-.361-.59c-.024,0-.044-.01-.068-.01a1.15,1.15,0,0,0-.119-.006A.7.7,0,0,0-2482.428-1734.254Zm3.972,2.895a1.553,1.553,0,0,1-1.145-1.023,2.6,2.6,0,0,1-.005-1.842,1.6,1.6,0,0,1,1.36-1.072,2.4,2.4,0,0,1,.931.034,1.64,1.64,0,0,1,1.243,1.233,1.692,1.692,0,0,1,.054.273s0,0,0,.01h-.009v.049h0a0,0,0,0,0,0,0v.039a.07.07,0,0,0,.02.073v-.02s0,0,0,.01v.561a.04.04,0,0,0-.009.02v-.01c-.029.02-.024.044-.02.073v.068h0a1.674,1.674,0,0,1-1.516,1.569,2.324,2.324,0,0,1-.329.023A2.458,2.458,0,0,1-2478.457-1731.359Zm.482-3.109a.635.635,0,0,0-.5.3,1.074,1.074,0,0,0-.131.321,2.664,2.664,0,0,0-.04.858,1.393,1.393,0,0,0,.132.482.627.627,0,0,0,.458.365.878.878,0,0,0,.278.01.631.631,0,0,0,.463-.263.885.885,0,0,0,.136-.283,1.781,1.781,0,0,0,.068-.624,2.368,2.368,0,0,0,0-.263,1.436,1.436,0,0,0-.141-.551.628.628,0,0,0-.443-.346.785.785,0,0,0-.163-.016A1.131,1.131,0,0,0-2477.974-1734.468Zm-9,3.075a1.4,1.4,0,0,1-.843-.746,2.318,2.318,0,0,1-.244-1.038,2.769,2.769,0,0,1,.17-1.125,1.533,1.533,0,0,1,.76-.867,1.621,1.621,0,0,1,1.574.1c.034.02.059.049.1.054.024-.034.009-.068.009-.1v-1.579c0-.185.034-.219.22-.219h.677c.146,0,.186.034.19.185v5.136c0,.142-.044.185-.18.185-.171,0-.341,0-.517,0h-.117a.173.173,0,0,1-.17-.132.694.694,0,0,0-.054-.171c-.043.01-.063.044-.1.063a1.594,1.594,0,0,1-.964.336A1.736,1.736,0,0,1-2486.975-1731.393Zm.7-3.1a.628.628,0,0,0-.512.327,1.112,1.112,0,0,0-.1.239,2.513,2.513,0,0,0-.058.916,1.347,1.347,0,0,0,.136.492.668.668,0,0,0,.521.361,1.2,1.2,0,0,0,.765-.146.128.128,0,0,0,.079-.136v-.887c0-.3-.005-.59,0-.892a.134.134,0,0,0-.088-.141,1.486,1.486,0,0,0-.62-.138C-2486.186-1734.5-2486.229-1734.5-2486.273-1734.493Zm-16.763,3.1c-.18,0-.22-.044-.22-.224v-2.3a1.113,1.113,0,0,0-.024-.253.368.368,0,0,0-.341-.292,1.716,1.716,0,0,0-.853.166.077.077,0,0,0-.053.093v2.6c0,.18-.039.219-.22.219h-.653c-.17,0-.214-.049-.214-.215v-3.382a.476.476,0,0,1,.015-.117.142.142,0,0,1,.136-.093h.609a.176.176,0,0,1,.17.136c.024.068.039.132.063.2.049,0,.078-.034.112-.053a2.537,2.537,0,0,1,.868-.366,1.851,1.851,0,0,1,.731,0,.913.913,0,0,1,.565.38.272.272,0,0,0,.029.034s0,0,.005.015c.122-.073.248-.151.38-.219a2.179,2.179,0,0,1,1.106-.243,1.03,1.03,0,0,1,.727.3,1.034,1.034,0,0,1,.272.677c0,.053,0,.107,0,.166v2.524c0,.219-.029.248-.249.248h-.594a.99.99,0,0,1-.117,0,.134.134,0,0,1-.117-.112.892.892,0,0,1-.01-.161v-2.256a.822.822,0,0,0-.029-.268.364.364,0,0,0-.331-.268,1.722,1.722,0,0,0-.838.161.08.08,0,0,0-.059.088v2.563a.69.69,0,0,1-.01.141.116.116,0,0,1-.122.117c-.073.005-.146.005-.225.005Zm13.342-.005a.136.136,0,0,1-.151-.141.654.654,0,0,1,0-.093V-1735c0-.151.044-.195.195-.195h.7c.151,0,.195.044.195.195v3.46a.139.139,0,0,1-.151.146c-.132,0-.262,0-.393,0S-2489.562-1731.4-2489.694-1731.4Zm-2.179,0q-.321-.007-.643,0a.275.275,0,0,1-.292-.2c-.122-.322-.249-.648-.371-.97-.292-.765-.59-1.53-.882-2.3a.875.875,0,0,1-.063-.19c-.015-.1.02-.146.117-.146.278,0,.556,0,.829,0,.117,0,.17.078.2.18.054.186.107.375.166.561.2.677.4,1.36.595,2.037,0,.005,0,.005.01.005.029-.1.059-.19.088-.288.224-.755.448-1.506.672-2.261l.029-.088a.2.2,0,0,1,.195-.141h.741c.185,0,.224.053.161.229l-.292.775c-.327.848-.653,1.7-.979,2.549-.01.029-.025.058-.034.088a.238.238,0,0,1-.224.162Zm-18.439,0a.825.825,0,0,1-.107,0,.131.131,0,0,1-.117-.122,1.043,1.043,0,0,1,0-.117v-3.314c0-.224.024-.249.248-.249h.468a.194.194,0,0,1,.219.166c.034.122.063.244.092.375a.144.144,0,0,0,.083-.058,3.284,3.284,0,0,1,.278-.249,1.3,1.3,0,0,1,.887-.268c.127,0,.171.044.18.166.01.166,0,.336,0,.5a.914.914,0,0,1-.01.2.139.139,0,0,1-.141.132,1.373,1.373,0,0,1-.2,0,2.332,2.332,0,0,0-.95.136c-.068.024-.068.073-.068.127v2.339a1.1,1.1,0,0,1,0,.127.118.118,0,0,1-.117.112.832.832,0,0,1-.107,0Zm2.9-.01a.307.307,0,0,1-.068-.005.141.141,0,0,1-.132-.126,1.04,1.04,0,0,1,0-.117c0-.541,0-1.1,0-1.652v-1.73c0-.117.049-.161.166-.166q.38-.007.76,0c.112,0,.146.034.156.146a1.1,1.1,0,0,1,0,.127v3.245c0,.054,0,.107-.01.161a.121.121,0,0,1-.117.112.446.446,0,0,1-.083.005Zm31.4-1.54Zm-13.323-2.841a.925.925,0,0,1-.161-.02.551.551,0,0,1-.429-.643.546.546,0,0,1,.521-.492.358.358,0,0,1,.1,0,.589.589,0,0,1,.288.049.512.512,0,0,1,.331.453.57.57,0,0,1-.628.658Zm-17.9-.015a.545.545,0,0,1-.463-.609.567.567,0,0,1,.648-.536.609.609,0,0,1,.229.034.554.554,0,0,1,.375.614.545.545,0,0,1-.463.5.9.9,0,0,1-.163.015A.908.908,0,0,1-2507.232-1735.8Z" transform="translate(2658.1 2032.451)" fill="#fff"/>
  </g>
</svg>
