<svg xmlns="http://www.w3.org/2000/svg" width="48" height="48" viewBox="0 0 48 48">
  <g id="icon_burger" transform="translate(-342 -17)">
    <rect id="icon_zone" width="48" height="48" transform="translate(342 17)" fill="#fff" opacity="0"/>
    <path id="icon_burger-2" data-name="icon_burger" d="M-12367-1687a2,2,0,0,1-2-2,2,2,0,0,1,2-2h16a2,2,0,0,1,2,2,2,2,0,0,1-2,2Zm-12-8a2,2,0,0,1-2-2,2,2,0,0,1,2-2h28a2,2,0,0,1,2,2,2,2,0,0,1-2,2Zm8-8a2,2,0,0,1-2-2,2,2,0,0,1,2-2h20a2,2,0,0,1,2,2,2,2,0,0,1-2,2Z" transform="translate(12731 1738)" fill="#fff"/>
  </g>
</svg>
