<svg xmlns="http://www.w3.org/2000/svg" width="88.086" height="16" viewBox="0 0 88.086 16">
  <path id="label_prime_video" data-name="label_prime video" d="M-2514.989-1721.217c-.011-3.841-.011-7.7-.011-11.557a.768.768,0,0,1,.66-.22c.33.011.671,0,1,0a.437.437,0,0,1,.5.375c.033.11.055.22.088.33,0,.01.022.022.044.033a.866.866,0,0,0,.231-.166,3.89,3.89,0,0,1,3.291-.737,3.183,3.183,0,0,1,2.2,1.882,5.012,5.012,0,0,1,.429,1.651,6.8,6.8,0,0,1-.242,2.741,4.067,4.067,0,0,1-1.145,1.838,3.229,3.229,0,0,1-2.586.8,3.694,3.694,0,0,1-1.915-.759c-.077.066-.044.154-.044.231v3.137c0,.682,0,.682-.694.682-.4,0-.792-.011-1.188,0l-.068,0A.58.58,0,0,1-2514.989-1721.217Zm2.707-9.84a.333.333,0,0,0-.22.341c.011.66,0,1.321,0,1.981v1.992a.312.312,0,0,0,.187.308,3.024,3.024,0,0,0,1.607.352,1.57,1.57,0,0,0,1.013-.385,1.7,1.7,0,0,0,.506-.881,5.49,5.49,0,0,0,.132-2.08,3.062,3.062,0,0,0-.286-1.122,1.345,1.345,0,0,0-1.045-.793,2.651,2.651,0,0,0-.517-.051A3.213,3.213,0,0,0-2512.281-1731.057Zm36.036,6.791a3.442,3.442,0,0,1-2.818-2.641,6.081,6.081,0,0,1,.022-3.434,3.755,3.755,0,0,1,3.39-2.818,4.93,4.93,0,0,1,2.19.209,2.626,2.626,0,0,1,1.651,3.3,2.049,2.049,0,0,1-1.013,1.233,4.032,4.032,0,0,1-1.376.44,7.347,7.347,0,0,1-2.5-.033,2.756,2.756,0,0,0-.308-.044,1.842,1.842,0,0,0,1.486,1.981,5.449,5.449,0,0,0,2.069-.022c.319-.066.627-.132.946-.209s.452.022.452.353c0,.275-.011.55,0,.814a.5.5,0,0,1-.374.539,6.67,6.67,0,0,1-1.3.352,8.2,8.2,0,0,1-1.282.109A5.648,5.648,0,0,1-2476.245-1724.266Zm-.517-6.186a3.006,3.006,0,0,0-.209.76c-.022.176-.022.176.143.2a8.649,8.649,0,0,0,1.3.1,2.235,2.235,0,0,0,.715-.055.983.983,0,0,0,.837-.639,1.254,1.254,0,0,0,.033-.572.84.84,0,0,0-.506-.694,1.812,1.812,0,0,0-.583-.132c-.047,0-.095,0-.142,0A1.617,1.617,0,0,0-2476.762-1730.452Zm35.43,6.142a3.381,3.381,0,0,1-2.521-2.355,6.112,6.112,0,0,1-.044-3.688,3.834,3.834,0,0,1,3.83-2.829,4.867,4.867,0,0,1,1.64.209,2.551,2.551,0,0,1,1.805,1.926,2.989,2.989,0,0,1,.01,1.211,2.045,2.045,0,0,1-1.111,1.464,4.508,4.508,0,0,1-1.849.473,8.7,8.7,0,0,1-2.2-.132.355.355,0,0,0-.154-.022,4.568,4.568,0,0,0,.121.671,1.724,1.724,0,0,0,1.452,1.32,5.577,5.577,0,0,0,2.257-.077c.241-.055.473-.11.715-.177.319-.077.451.033.462.352v.793a.49.49,0,0,1-.4.572,6.984,6.984,0,0,1-2.367.451c-.079,0-.159,0-.238,0A5.956,5.956,0,0,1-2441.333-1724.31Zm-.1-6.549a2.724,2.724,0,0,0-.44,1.2c-.022.1.021.143.121.154a10.809,10.809,0,0,0,1.333.11,2.845,2.845,0,0,0,.682-.055.97.97,0,0,0,.88-.683.984.984,0,0,0-.814-1.332c-.055,0-.1-.022-.154-.022a2.646,2.646,0,0,0-.268-.014A1.58,1.58,0,0,0-2441.432-1730.859Zm8.971,6.538a3.508,3.508,0,0,1-2.587-2.312,5.887,5.887,0,0,1-.01-4.16,3.611,3.611,0,0,1,3.071-2.422,5.408,5.408,0,0,1,2.1.077,3.7,3.7,0,0,1,2.806,2.785,3.774,3.774,0,0,1,.122.617c0,.011.011.011.011.022h-.022v.11h.011a.011.011,0,0,0-.011.011v.088a.16.16,0,0,0,.044.165v-.044c0,.011.011.011.011.022v1.266a.079.079,0,0,0-.021.044v-.022c-.066.044-.055.1-.044.166v.154h.01a3.781,3.781,0,0,1-3.423,3.544,5.229,5.229,0,0,1-.743.052A5.555,5.555,0,0,1-2432.461-1724.321Zm1.089-7.022a1.435,1.435,0,0,0-1.123.683,2.466,2.466,0,0,0-.3.727,6.034,6.034,0,0,0-.088,1.937,3.139,3.139,0,0,0,.3,1.09,1.414,1.414,0,0,0,1.035.825,1.98,1.98,0,0,0,.627.022,1.424,1.424,0,0,0,1.046-.594,2.009,2.009,0,0,0,.308-.638,4.016,4.016,0,0,0,.154-1.409,5.237,5.237,0,0,0-.011-.594,3.244,3.244,0,0,0-.319-1.244,1.417,1.417,0,0,0-1-.781,1.783,1.783,0,0,0-.369-.036A2.556,2.556,0,0,0-2431.371-1731.343Zm-20.329,6.946a3.166,3.166,0,0,1-1.9-1.684,5.247,5.247,0,0,1-.55-2.345,6.24,6.24,0,0,1,.385-2.542,3.463,3.463,0,0,1,1.717-1.959,3.659,3.659,0,0,1,3.555.231c.077.044.132.11.231.121.055-.077.022-.154.022-.231v-3.566c0-.419.077-.5.495-.5h1.53c.33,0,.418.077.429.418v11.6c-.011.319-.1.418-.407.418-.385.011-.771,0-1.167,0h-.264a.39.39,0,0,1-.385-.3,1.562,1.562,0,0,0-.121-.385c-.1.022-.142.1-.22.143a3.6,3.6,0,0,1-2.177.759A3.92,3.92,0,0,1-2451.7-1724.4Zm1.585-7a1.421,1.421,0,0,0-1.156.738,2.535,2.535,0,0,0-.221.54,5.7,5.7,0,0,0-.132,2.069,3.034,3.034,0,0,0,.308,1.111,1.506,1.506,0,0,0,1.177.815,2.714,2.714,0,0,0,1.728-.331.288.288,0,0,0,.176-.308v-2c0-.671-.01-1.332.011-2.014a.3.3,0,0,0-.2-.319,3.363,3.363,0,0,0-1.4-.311Q-2449.967-1731.412-2450.115-1731.4Zm-37.863,7c-.407,0-.5-.1-.5-.506v-5.206a2.527,2.527,0,0,0-.055-.572.831.831,0,0,0-.771-.66,3.88,3.88,0,0,0-1.926.374.175.175,0,0,0-.121.209v5.867c0,.407-.088.495-.5.495h-1.475c-.385,0-.484-.11-.484-.484v-7.639a1.1,1.1,0,0,1,.033-.264.322.322,0,0,1,.309-.209h1.375a.4.4,0,0,1,.385.309c.055.154.088.3.143.462.11,0,.177-.077.253-.121a5.708,5.708,0,0,1,1.959-.826,4.159,4.159,0,0,1,1.651,0,2.06,2.06,0,0,1,1.276.858.491.491,0,0,0,.066.077c-.011.011,0,.011.011.033.275-.166.561-.341.858-.5a4.912,4.912,0,0,1,2.5-.55,2.322,2.322,0,0,1,1.64.671,2.339,2.339,0,0,1,.616,1.53c.011.121.011.242.011.374v5.7c0,.5-.066.562-.561.562h-1.344a2.123,2.123,0,0,1-.264-.011.3.3,0,0,1-.264-.253,2.035,2.035,0,0,1-.022-.363v-5.1a1.854,1.854,0,0,0-.066-.606.823.823,0,0,0-.748-.605,3.893,3.893,0,0,0-1.894.363.181.181,0,0,0-.132.2v5.79a1.522,1.522,0,0,1-.022.319.263.263,0,0,1-.275.264c-.165.011-.33.011-.506.011Zm30.136-.011a.307.307,0,0,1-.341-.32,1.3,1.3,0,0,1-.011-.209v-7.617c.011-.341.1-.44.44-.44h1.585c.341,0,.44.1.44.44v7.815a.315.315,0,0,1-.341.33c-.3.006-.591.009-.886.009S-2457.545-1724.4-2457.843-1724.409Zm-4.919,0q-.727-.016-1.453,0a.622.622,0,0,1-.66-.451c-.276-.727-.562-1.463-.837-2.19-.66-1.728-1.332-3.456-1.992-5.2a2.029,2.029,0,0,1-.143-.429c-.033-.22.044-.33.265-.33.627-.011,1.255,0,1.871,0,.265,0,.385.176.452.407.121.418.242.848.374,1.266.452,1.53.891,3.071,1.343,4.6-.011.011,0,.011.022.011.066-.22.132-.429.2-.65.507-1.706,1.013-3.4,1.52-5.107l.066-.2a.449.449,0,0,1,.44-.32h1.673c.419,0,.507.122.364.518l-.66,1.75c-.738,1.915-1.475,3.841-2.212,5.757-.022.066-.055.132-.077.2a.538.538,0,0,1-.5.365Zm-41.65,0a1.775,1.775,0,0,1-.241-.011.294.294,0,0,1-.264-.275,2.081,2.081,0,0,1-.011-.264v-7.484c0-.507.055-.561.562-.561h1.057a.436.436,0,0,1,.495.374c.078.275.143.55.209.847a.33.33,0,0,0,.187-.132,7.572,7.572,0,0,1,.627-.561,2.927,2.927,0,0,1,2-.606c.286.011.385.1.407.374.022.375.011.76.011,1.134a2.083,2.083,0,0,1-.022.451.315.315,0,0,1-.319.3,3.065,3.065,0,0,1-.451-.011,5.28,5.28,0,0,0-2.146.309c-.154.055-.154.165-.154.286v5.283a2.436,2.436,0,0,1-.011.286.265.265,0,0,1-.264.253,1.793,1.793,0,0,1-.242.011Zm6.55-.022a.763.763,0,0,1-.154-.01.319.319,0,0,1-.3-.286,2.088,2.088,0,0,1-.011-.264c.011-1.222.011-2.477.011-3.731v-3.907c.011-.264.11-.364.374-.374q.859-.016,1.718,0c.253,0,.33.077.352.33a2.494,2.494,0,0,1,.011.286v7.33c0,.121-.011.242-.022.364a.273.273,0,0,1-.264.253,1.125,1.125,0,0,1-.187.01Zm70.927-3.478Zm-30.093-6.417a2.073,2.073,0,0,1-.363-.044,1.245,1.245,0,0,1-.969-1.453,1.233,1.233,0,0,1,1.177-1.112.828.828,0,0,1,.231-.011,1.338,1.338,0,0,1,.649.11,1.159,1.159,0,0,1,.749,1.024,1.288,1.288,0,0,1-1.419,1.487Zm-40.427-.033a1.232,1.232,0,0,1-1.045-1.376,1.281,1.281,0,0,1,1.463-1.21,1.373,1.373,0,0,1,.518.077,1.249,1.249,0,0,1,.847,1.387,1.229,1.229,0,0,1-1.045,1.123,2.047,2.047,0,0,1-.369.033A2.049,2.049,0,0,1-2497.455-1734.359Z" transform="translate(2515 1736.951)" fill="#fff"/>
</svg>
