<svg xmlns="http://www.w3.org/2000/svg" width="48.512" height="16" viewBox="0 0 48.512 16">
  <path id="label_hulu" d="M10.787,5.981A3.711,3.711,0,0,1,11.993,9.04V16H8.166V9.552A1.081,1.081,0,0,0,7.111,8.5H4.881a.962.962,0,0,0-.723.316,1.036,1.036,0,0,0-.3.738V16H0V0H3.857V5.213c.06-.02.2-.06.422-.121A3.428,3.428,0,0,1,5.153,5H7.623A4.863,4.863,0,0,1,10.787,5.981ZM22.93,5h3.857v6.75a4.467,4.467,0,0,1-1.04,3.073A3.571,3.571,0,0,1,22.93,16h-3.8a4.5,4.5,0,0,1-3.179-1.1,4.072,4.072,0,0,1-1.19-3.149V5h3.857V11.45a1.029,1.029,0,0,0,1.025,1.024h2.23a1.037,1.037,0,0,0,.738-.3.962.962,0,0,0,.316-.723Zm6.78-5h3.857V16H29.71Zm18.8,5v6.75a4.467,4.467,0,0,1-1.04,3.073A3.571,3.571,0,0,1,44.655,16H40.889a4.541,4.541,0,0,1-3.209-1.1,4.072,4.072,0,0,1-1.19-3.149V5h3.857V11.45a1.029,1.029,0,0,0,1.024,1.024h2.26a1.029,1.029,0,0,0,1.025-1.024V5Z" fill="#fff"/>
</svg>
