<svg xmlns="http://www.w3.org/2000/svg" width="42.171" height="16" viewBox="0 0 42.171 16">
  <path id="label_appletv" d="M8.834,2.567A3.611,3.611,0,0,0,9.657,0a3.528,3.528,0,0,0-2.35,1.227A3.391,3.391,0,0,0,6.465,3.69,2.938,2.938,0,0,0,8.834,2.567M9.6,3.86c-1.311-.076-2.415.749-3.043.749S4.977,3.9,3.947,3.92A3.854,3.854,0,0,0,.67,5.93c-1.4,2.434-.374,6.06.992,8.042.665.942,1.46,2.064,2.518,2.028s1.386-.655,2.593-.655,1.563.655,2.612.632,1.779-.944,2.434-1.966a8.722,8.722,0,0,0,1.1-2.266A3.571,3.571,0,0,1,10.79,8.5,3.651,3.651,0,0,1,12.5,5.449,3.736,3.736,0,0,0,9.6,3.858m8.36-1.887V4.643H20.1V6.408H17.961v6.324c0,.944.421,1.425,1.357,1.425a7,7,0,0,0,.768-.056v1.779a7.324,7.324,0,0,1-1.264.094c-2.209,0-3.061-.858-3.061-3.011V6.45H14.086V4.681h1.629V1.973Zm9.6,13.9h-2.34L21.285,4.681h2.331l2.762,8.995h.056L29.2,4.681H31.48Zm10.279,0H35.814V11.288H31.47V9.268H35.8V4.681h2.022V9.268h4.344v2.02H37.836Z" transform="translate(0)" fill="#fff"/>
</svg>
